<svg width="365" height="112" viewBox="0 0 365 112" fill="none" xmlns="http://www.w3.org/2000/svg">
<path d="M43.4595 0.182808C61.2982 0.526441 79.5651 7.07297 93.0026 18.5802C94.0143 19.2432 95.0261 19.9061 96.0686 20.5892C97.0804 20.2577 98.0921 19.9262 99.1346 19.5847C99.1346 18.9217 99.1346 18.2587 99.1346 17.5757C101.572 15.8579 103.994 14.2825 106.544 12.7414C107.287 12.2902 108.029 11.8389 108.794 11.374C114.876 7.75131 121.02 4.80005 127.751 2.50795C128.421 2.26322 129.092 2.01849 129.783 1.76634C136.644 -0.356371 144.144 0.335064 151.257 0.498926C150.92 1.4934 150.582 2.48786 150.235 3.51247C149.197 3.68339 148.159 3.85432 147.089 4.03042C134.707 6.1402 123.677 9.03997 112.704 15.2959C110.377 16.5712 110.377 16.5712 107.311 17.5757C107.311 18.2386 107.311 18.9016 107.311 19.5847C106.636 19.5847 105.962 19.5847 105.267 19.5847C105.267 20.2477 105.267 20.9107 105.267 21.5937C104.592 21.5937 103.918 21.5937 103.223 21.5937C103.223 22.2567 103.223 22.9197 103.223 23.6028C102.548 23.6028 101.874 23.6028 101.179 23.6028C101.179 24.2657 101.179 24.9287 101.179 25.6118C100.504 25.6118 99.8296 25.6118 99.1346 25.6118C99.1583 26.8458 99.182 28.0798 99.2065 29.3512C99.3541 40.902 98.9832 52.3841 98.2403 63.9089C98.1601 65.2051 98.0799 66.5014 97.9973 67.8369C97.4645 75.6284 96.5246 83.2318 95.0466 90.9052C94.372 90.9052 93.6975 90.9052 93.0026 90.9052C92.6677 86.9511 92.3524 82.9956 92.0444 79.0394C91.9481 77.8046 91.8518 76.5697 91.7525 75.2975C91.2188 67.9601 90.8662 60.6502 90.739 53.2948C90.7162 52.1102 90.7162 52.1102 90.693 50.9017C90.6209 47.0103 90.5719 43.1204 90.5556 39.2284C90.5336 37.7894 90.5109 36.3504 90.4875 34.9114C90.4791 33.649 90.4707 32.3867 90.462 31.0861C89.7294 26.2546 87.5596 23.1166 83.9043 19.8633C70.449 11.1566 54.773 7.43635 38.8362 6.52601C38.6966 7.79111 38.5569 9.05621 38.4131 10.3596C36.8935 23.7776 35.0995 37.1614 32.7673 50.4669C31.582 57.2312 30.5838 64.0139 29.6382 70.8149C30.5331 70.8825 30.5331 70.8825 31.4462 70.9515C34.2086 71.1668 36.9694 71.3988 39.7305 71.6311C41.1375 71.7369 41.1375 71.7369 42.5729 71.8449C51.0663 72.5798 59.1558 74.1952 66.5582 78.5371C67.3196 78.9761 68.0811 79.4151 68.8656 79.8673C69.4111 80.1949 69.9565 80.5225 70.5184 80.8601C70.5184 81.523 70.5184 82.186 70.5184 82.8691C72.542 83.8636 72.542 83.8636 74.6065 84.8781C74.6065 85.5411 74.6065 86.2041 74.6065 86.8871C75.281 86.8871 75.9555 86.8871 76.6505 86.8871C77.325 88.2131 77.9995 89.5391 78.6945 90.9052C75.1029 92.0819 73.4399 91.6578 69.7519 90.968C50.6985 87.9367 27.8246 90.3715 11.2421 100.95C16.1358 100.477 20.9436 99.893 25.7777 99.0041C38.4751 96.7036 50.9254 95.4668 63.8115 95.1116C64.5406 95.0903 65.2696 95.069 66.0207 95.0471C78.2649 94.7122 78.2649 94.7122 80.7385 95.9278C80.7385 96.5908 80.7385 97.2537 80.7385 97.9368C81.5606 98.2476 82.3826 98.5583 83.2296 98.8785C85.8485 99.9458 85.8485 99.9458 86.8705 100.95C92.2298 101.859 96.8766 102.377 102.201 100.95C103.228 99.9551 104.224 98.9272 105.195 97.8779C109.48 94.1505 113.235 94.373 118.766 94.6525C120.463 94.7865 120.463 94.7865 122.194 94.9233C123.329 94.9815 124.464 95.0398 125.633 95.0998C131.055 95.4252 135.974 95.8378 141.037 97.9368C141.037 98.5998 141.037 99.2628 141.037 99.9458C140.248 100.021 139.459 100.097 138.646 100.175C135.077 100.524 131.51 100.894 127.942 101.264C126.08 101.442 126.08 101.442 124.18 101.623C122.396 101.813 122.396 101.813 120.577 102.006C119.48 102.116 118.382 102.227 117.252 102.341C114.23 103.011 113.375 103.736 111.399 105.973C110.724 105.973 110.05 105.973 109.355 105.973C109.355 106.636 109.355 107.299 109.355 107.982C98.7254 111.579 90.7938 112.234 80.2914 107.354C79.4271 106.898 78.5629 106.443 77.6725 105.973C77.6725 105.31 77.6725 104.647 77.6725 103.964C54.613 104.612 32.5883 106.876 9.8433 110.568C6.56736 111.089 3.28756 111.557 0 112C0.414778 108.168 1.0211 104.771 2.36738 101.15C4.68894 94.4333 6.20103 87.5192 7.7928 80.6089C7.96492 79.8706 8.13704 79.1323 8.31437 78.3716C10.6212 68.4612 12.7477 58.5238 14.7353 48.5469C15.0425 47.0091 15.0425 47.0091 15.3559 45.4402C16.3666 40.367 17.362 35.2915 18.3367 30.2116C18.7036 28.3447 19.0707 26.4779 19.4381 24.6112C19.5975 23.7547 19.7569 22.8982 19.9212 22.0157C21.4634 14.2725 21.4634 14.2725 24.5281 11.5486C28.2968 11.2975 28.2968 11.2975 31.6822 11.5486C31.8179 10.8351 31.9536 10.1216 32.0934 9.38652C32.2739 8.46327 32.4544 7.54002 32.6403 6.58879C32.8182 5.66813 32.996 4.74747 33.1793 3.79891C34.3795 -1.23848 38.9185 0.187654 43.4595 0.182808ZM26.5722 16.5712C25.0163 18.1004 25.1664 19.669 24.8874 21.7938C24.7682 22.6701 24.649 23.5463 24.5262 24.4491C24.4003 25.3922 24.2745 26.3352 24.1449 27.3069C23.1198 34.6906 21.8692 41.9284 20.1846 49.1982C19.1143 54.135 18.319 59.1062 17.5086 64.0894C16.5252 70.0405 15.2702 75.884 13.849 81.7508C13.2298 85.1907 13.1924 88.4234 13.2861 91.9097C15.9662 91.3 18.248 90.5553 20.8234 89.524C26.9733 87.2191 33.4068 86.0684 39.8582 84.8781C40.6474 84.7305 41.4365 84.5829 42.2496 84.4308C49.9064 83.3041 57.7337 84.2765 65.4084 84.8781C58.8534 80.5829 51.4174 79.3353 43.6908 78.5999C42.5308 78.4639 42.5308 78.4639 41.3473 78.3252C34.3089 77.6116 27.466 78.1742 20.4401 78.851C21.5665 71.9187 22.6936 64.9866 23.821 58.0545C24.2038 55.7008 24.5863 53.3471 24.9688 50.9934C25.5215 47.592 26.0747 44.1907 26.6281 40.7894C26.7963 39.753 26.9646 38.7165 27.138 37.6487C28.2825 30.6179 29.4611 23.5932 30.6602 16.5712C29.3111 16.5712 27.9621 16.5712 26.5722 16.5712Z" fill="#F9A024"/>
<path d="M43.4597 0.182808C61.2983 0.526441 79.5653 7.07297 93.0027 18.5802C94.0145 19.2432 95.0263 19.9061 96.0688 20.5892C97.0806 20.2577 98.0923 19.9262 99.1348 19.5847C99.1348 18.9217 99.1348 18.2587 99.1348 17.5757C101.572 15.8579 103.994 14.2825 106.544 12.7414C107.287 12.2902 108.029 11.8389 108.794 11.374C114.876 7.75131 121.02 4.80005 127.751 2.50795C128.422 2.26322 129.092 2.01849 129.783 1.76634C136.644 -0.356371 144.144 0.335064 151.257 0.498926C150.92 1.4934 150.583 2.48786 150.235 3.51247C149.197 3.68339 148.159 3.85432 147.089 4.03042C134.707 6.1402 123.678 9.03997 112.704 15.2959C110.377 16.5712 110.377 16.5712 107.311 17.5757C107.311 18.2386 107.311 18.9016 107.311 19.5847C106.636 19.5847 105.962 19.5847 105.267 19.5847C105.267 20.2477 105.267 20.9107 105.267 21.5937C104.592 21.5937 103.918 21.5937 103.223 21.5937C103.223 22.2567 103.223 22.9197 103.223 23.6028C102.548 23.6028 101.874 23.6028 101.179 23.6028C101.179 24.2657 101.179 24.9287 101.179 25.6118C100.504 25.6118 99.8298 25.6118 99.1348 25.6118C99.1585 26.8458 99.1822 28.0798 99.2066 29.3512C99.3543 40.902 98.9834 52.3841 98.2405 63.9089C98.1603 65.2051 98.0801 66.5014 97.9975 67.8369C97.4647 75.6284 96.5247 83.2318 95.0468 90.9052C94.3722 90.9052 93.6977 90.9052 93.0027 90.9052C92.6679 86.9511 92.3526 82.9956 92.0446 79.0394C91.9483 77.8046 91.8519 76.5697 91.7527 75.2975C91.219 67.9601 90.8664 60.6502 90.7392 53.2948C90.7164 52.1102 90.7164 52.1102 90.6932 50.9017C90.6211 47.0103 90.5721 43.1204 90.5558 39.2284C90.5338 37.7894 90.5111 36.3504 90.4877 34.9114C90.4793 33.649 90.4709 32.3867 90.4622 31.0861C89.7296 26.2546 87.5597 23.1166 83.9045 19.8633C70.4492 11.1566 54.7732 7.43635 38.8364 6.52601C38.6889 7.83125 38.5413 9.13649 38.3893 10.4813C37.857 15.1899 37.3247 19.8986 36.7924 24.6073C36.4551 24.6073 36.1179 24.6073 35.7704 24.6073C35.7704 20.6294 35.7704 16.6515 35.7704 12.5531C32.534 14.3947 32.534 14.3947 30.6604 17.5757C29.3113 17.5757 27.9623 17.5757 26.5723 17.5757C26.4955 18.141 26.4187 18.7064 26.3396 19.2889C24.959 29.3548 23.4925 39.3143 21.2028 49.2257C20.3289 53.246 19.6369 57.2771 18.9712 61.3348C17.2913 71.5669 15.3006 81.7368 13.2863 91.9097C13.8024 91.6408 14.3185 91.3719 14.8502 91.0948C19.1211 88.9234 23.1533 87.2009 27.8499 86.071C28.8669 85.8159 29.884 85.5608 30.9318 85.298C33.6593 84.8882 35.2404 84.9971 37.8144 85.8826C34.1002 88.219 30.8945 88.0551 26.5723 87.8917C26.5723 88.5546 26.5723 89.2176 26.5723 89.9007C25.6238 90.1907 24.6752 90.4808 23.698 90.7796C20.3402 91.7967 20.3402 91.7967 17.3743 93.9187C14.6276 94.0443 14.6276 94.0443 12.2643 93.9187C12.2367 91.7842 12.2169 89.6496 12.2004 87.515C12.1885 86.3263 12.1767 85.1376 12.1645 83.9128C12.2643 80.8601 12.2643 80.8601 13.2863 78.851C13.5199 76.8044 13.7055 74.7522 13.8611 72.6984C13.9468 71.5977 14.0324 70.4971 14.1206 69.3631C14.1826 68.5162 14.2445 67.6694 14.3083 66.7969C13.6337 66.7969 12.9592 66.7969 12.2643 66.7969C12.3275 68.0399 12.3907 69.283 12.4559 70.5638C12.4724 73.6096 12.3731 74.6547 10.7313 77.3443C10.2254 77.8415 9.71947 78.3387 9.19824 78.851C9.9004 71.5266 11.1941 64.4121 12.6715 57.203C12.9123 56.0213 13.1531 54.8396 13.4012 53.6221C13.9093 51.1389 14.4196 48.6561 14.9321 46.1737C15.7142 42.3712 16.4805 38.5659 17.2465 34.7603C17.7433 32.3424 18.2409 29.9246 18.7396 27.507C18.9665 26.3696 19.1934 25.2322 19.4271 24.0603C19.6487 23.0038 19.8702 21.9473 20.0985 20.8587C20.2883 19.9313 20.4781 19.0038 20.6737 18.0483C21.5488 15.2944 22.4771 13.6128 24.5283 11.5486C28.297 11.2975 28.297 11.2975 31.6824 11.5486C31.8181 10.8351 31.9538 10.1216 32.0936 9.38652C32.2741 8.46327 32.4546 7.54002 32.6405 6.58879C32.9073 5.2078 32.9073 5.2078 33.1795 3.79891C34.3797 -1.23848 38.9186 0.187654 43.4597 0.182808Z" fill="#F4A12E"/>
<path d="M119.575 22.5982C124.359 22.5734 129.144 22.5552 133.928 22.543C135.557 22.5379 137.186 22.5311 138.815 22.5224C141.151 22.5103 143.487 22.5045 145.824 22.5001C146.556 22.4949 147.289 22.4897 148.043 22.4844C149.796 22.4842 151.549 22.536 153.301 22.5982C154.323 23.6027 154.323 23.6027 154.323 31.6388C146.229 31.6388 138.135 31.6388 129.795 31.6388C129.795 35.6167 129.795 39.5946 129.795 43.693C136.877 43.693 143.96 43.693 151.257 43.693C151.257 46.6764 151.257 49.6598 151.257 52.7336C144.175 52.7336 137.092 52.7336 129.795 52.7336C129.795 56.38 129.795 60.0264 129.795 63.7833C132.322 63.7658 132.322 63.7658 134.901 63.748C137.095 63.7385 139.29 63.7294 141.484 63.7205C142.597 63.7121 143.709 63.7037 144.856 63.695C145.913 63.6917 146.97 63.6885 148.059 63.6852C149.039 63.6799 150.018 63.6747 151.027 63.6692C153.301 63.7833 153.301 63.7833 154.323 64.7878C154.397 66.3139 154.409 67.8432 154.387 69.3709C154.378 70.2009 154.369 71.0309 154.359 71.8861C154.347 72.5271 154.335 73.168 154.323 73.8284C149.393 73.8532 144.463 73.8714 139.533 73.8836C137.855 73.8887 136.176 73.8955 134.498 73.9042C132.091 73.9163 129.683 73.9221 127.276 73.9265C126.521 73.9317 125.766 73.9369 124.989 73.9422C123.184 73.9424 121.379 73.8906 119.575 73.8284C117.958 72.2392 118.423 70.6278 118.421 68.4238C118.417 67.4883 118.414 66.5529 118.411 65.5891C118.413 64.5711 118.415 63.553 118.417 62.5041C118.416 61.4647 118.415 60.4254 118.414 59.3545C118.414 57.1505 118.415 54.9465 118.42 52.7424C118.425 49.3649 118.42 45.9875 118.413 42.61C118.414 40.4728 118.415 38.3356 118.417 36.1984C118.415 35.1844 118.413 34.1704 118.411 33.1256C118.414 32.1839 118.417 31.2421 118.421 30.2718C118.421 29.4428 118.422 28.6138 118.423 27.7597C118.553 25.6117 118.553 25.6117 119.575 22.5982Z" fill="white"/>
<path d="M189.902 21.4603C190.639 21.4629 191.377 21.4655 192.137 21.4682C192.875 21.4656 193.613 21.463 194.373 21.4603C196.225 21.5937 196.225 21.5937 197.247 22.5983C197.343 24.2016 197.367 25.809 197.363 27.4151C197.363 28.4407 197.363 29.4662 197.363 30.5229C197.358 31.6383 197.352 32.7537 197.347 33.903C197.346 35.0386 197.344 36.1743 197.343 37.3444C197.337 40.9884 197.324 44.6322 197.311 48.2761C197.306 50.7397 197.301 53.2032 197.297 55.6668C197.286 61.7207 197.269 67.7746 197.247 73.8285C195.587 73.8556 193.926 73.8751 192.265 73.8913C191.34 73.9029 190.415 73.9146 189.462 73.9266C187.027 73.8285 187.027 73.8285 184.983 72.824C184.369 73.1283 183.755 73.4326 183.123 73.7461C179.167 75.676 174.989 75.2563 170.675 74.833C165.371 73.0624 162.679 70.2239 159.433 65.7924C156.307 59.3269 156.545 52.6972 158.475 45.8904C161.236 41.4258 164.871 38.0069 169.653 35.6569C171.652 35.5338 173.655 35.4806 175.657 35.4686C176.73 35.4543 177.802 35.4401 178.907 35.4254C181.851 35.6519 183.514 36.1696 186.005 37.666C186.098 36.0519 186.098 36.0519 186.193 34.4052C186.279 33.0018 186.366 31.5983 186.452 30.1949C186.492 29.4846 186.533 28.7744 186.574 28.0426C186.977 21.6709 186.977 21.6709 189.902 21.4603ZM169.909 46.8322C167.823 49.9064 167.488 53.1447 167.609 56.7517C168.675 60.8928 170.04 63.3674 173.741 65.7924C177.966 66.2538 180.168 66.2273 183.833 64.0345C186.098 61.6774 186.752 60.9097 187.027 57.7562C187.133 56.6375 187.238 55.5187 187.347 54.366C186.959 49.9527 185.953 47.9721 182.939 44.6976C177.731 42.9548 174.405 43.9908 169.909 46.8322Z" fill="white"/>
<path d="M274.281 24.2933C277.265 26.8774 279.187 29.1885 281.052 32.6433C281.052 34.3008 281.052 35.9582 281.052 37.6659C277.679 37.6659 274.307 37.6659 270.832 37.6659C270.495 36.34 270.157 35.014 269.81 33.6479C266.864 32.6828 265.008 32.537 261.953 32.5806C261.127 32.5896 260.301 32.5987 259.45 32.608C258.822 32.6197 258.193 32.6313 257.546 32.6433C257.033 35.4869 257.033 35.4869 257.546 38.6704C261.03 41.8252 264.185 42.8915 268.724 44.0697C273.872 45.4607 277.576 47.7178 281.052 51.7291C282.822 56.9487 282.722 61.9085 280.924 67.1107C278.016 71.2075 274.588 73.2673 269.81 74.8329C262.018 75.5988 256.211 74.5339 249.37 70.8149C249.37 70.1519 249.37 69.4889 249.37 68.8059C248.695 68.8059 248.021 68.8059 247.326 68.8059C244.668 64.888 245.127 61.2978 245.282 56.7517C248.317 56.7517 251.352 56.7517 254.48 56.7517C255.239 58.4609 255.239 58.4609 256.013 60.2047C257.338 62.5161 257.994 63.5734 260.552 64.5092C263.964 64.9478 266.541 64.8543 269.81 63.7833C270.85 61.5019 270.96 60.2291 270.293 57.8151C268.02 54.6922 264.802 53.8575 261.25 52.6081C248.945 48.09 248.945 48.09 246.064 42.6846C244.648 39.0566 244.78 36.5297 245.282 32.6433C248.072 27.1587 251.916 23.8708 257.801 21.782C263.697 21.3869 268.949 21.6728 274.281 24.2933Z" fill="white"/>
<path d="M357.191 37.1637C364.033 43.8883 364.856 47.5107 364.856 57.7562C356.425 57.7562 347.993 57.7562 339.306 57.7562C340.88 62.5809 340.88 62.5809 343.394 64.7878C347.525 65.1616 347.525 65.1616 351.57 64.7878C352.052 64.288 352.534 63.7882 353.031 63.2732C354.636 61.7743 354.636 61.7743 357.171 61.48C358.084 61.5149 358.997 61.5499 359.938 61.5859C361.319 61.6267 361.319 61.6267 362.728 61.6683C363.782 61.7208 363.782 61.7208 364.856 61.7743C363.333 67.6252 360.758 71.0217 355.466 74.1424C348.637 75.7833 342.142 75.6902 335.992 72.1176C331.372 68.7673 329.519 65.8981 328.371 60.295C327.587 53.2251 327.343 47.419 331.577 41.425C338.174 34.1956 348.284 33.4118 357.191 37.1637ZM341.35 45.702C339.976 47.7285 339.976 47.7285 339.306 49.7201C340.468 51.0916 340.468 51.0916 343.558 50.8227C344.874 50.8111 346.19 50.7994 347.546 50.7874C348.865 50.7783 350.183 50.7693 351.542 50.7599C352.563 50.7483 353.584 50.7366 354.636 50.7246C353.309 46.6053 353.309 46.6053 349.718 44.2581C346.024 43.6174 344.531 43.7917 341.35 45.702Z" fill="white"/>
<path d="M213.599 36.6614C213.619 37.3046 213.64 37.9477 213.661 38.6103C213.758 41.5397 213.87 44.4683 213.982 47.3971C214.014 48.4091 214.046 49.421 214.078 50.4637C214.118 51.4445 214.157 52.4254 214.198 53.436C214.23 54.3355 214.262 55.2351 214.295 56.1619C214.648 58.9776 215.487 61.2043 216.665 63.7833C220.044 64.641 220.044 64.641 223.819 64.7878C226.624 62.7392 227.756 61.4914 228.465 58.1005C228.487 57.1116 228.508 56.1226 228.53 55.1037C228.579 53.4915 228.579 53.4915 228.63 51.8468C228.644 50.7306 228.659 49.6145 228.674 48.4644C228.704 47.3327 228.734 46.201 228.766 45.035C228.838 42.2437 228.892 39.4533 228.929 36.6614C232.302 36.6614 235.675 36.6614 239.149 36.6614C239.149 48.9265 239.149 61.1916 239.149 73.8284C229.951 73.8284 229.951 73.8284 226.885 72.8239C225.512 73.4715 224.15 74.1434 222.797 74.8329C217.123 75.6138 212.221 75.1567 207.467 71.8194C204.678 67.349 204.031 64.0372 204.102 58.8313C204.112 57.5365 204.121 56.2416 204.132 54.9075C204.157 53.555 204.183 52.2026 204.209 50.8502C204.225 49.4742 204.239 48.0982 204.251 46.7222C204.287 43.3682 204.338 40.015 204.401 36.6614C211.3 35.5313 211.3 35.5313 213.599 36.6614Z" fill="white"/>
<path d="M316.822 27.6208C316.822 30.2727 316.822 32.9246 316.822 35.6569C319.857 35.9884 322.893 36.3199 326.02 36.6614C326.02 39.3134 326.02 41.9653 326.02 44.6975C321.973 45.1948 321.973 45.1948 317.844 45.7021C317.507 51.6689 317.17 57.6357 316.822 63.7833C319.857 64.1148 322.893 64.4463 326.02 64.7878C326.12 71.7527 326.12 71.7527 326.02 73.8285C324.998 74.833 324.998 74.833 321.229 75.0213C317.393 74.9874 314.273 74.2325 310.69 72.8239C310.69 72.161 310.69 71.498 310.69 70.8149C310.015 70.8149 309.341 70.8149 308.646 70.8149C306.27 65.2798 306.363 60.2563 306.474 54.366C306.483 53.435 306.493 52.504 306.502 51.5447C306.526 49.2621 306.56 46.9799 306.602 44.6975C305.78 44.7183 304.958 44.739 304.111 44.7603C301.492 44.6975 301.492 44.6975 300.47 43.693C300.428 41.3495 300.427 39.0049 300.47 36.6614C303.536 35.6569 303.536 35.6569 306.602 36.6614C306.602 33.678 306.602 30.6946 306.602 27.6208C310.379 26.6663 313.045 26.6663 316.822 27.6208Z" fill="white"/>
<path d="M33.7264 1.50342C34.0637 1.50342 34.4009 1.50342 34.7484 1.50342C35.0857 4.48682 35.4229 7.47023 35.7704 10.544C36.1077 8.8866 36.4449 7.22915 36.7924 5.52147C39.4905 5.52147 42.1886 5.52147 44.9685 5.52147C44.9685 5.85296 44.9685 6.18445 44.9685 6.52599C42.9449 6.52599 40.9213 6.52599 38.8364 6.52599C38.6889 7.83123 38.5413 9.13647 38.3893 10.4813C37.857 15.1899 37.3247 19.8986 36.7924 24.6072C36.4551 24.6072 36.1179 24.6072 35.7704 24.6072C35.7704 20.6294 35.7704 16.6515 35.7704 12.5531C32.5341 14.3947 32.5341 14.3947 30.6604 17.5756C29.3113 17.5756 27.9623 17.5756 26.5723 17.5756C26.4955 18.141 26.4187 18.7064 26.3396 19.2889C24.959 29.3547 23.4925 39.3142 21.2028 49.2257C20.3289 53.246 19.6369 57.2771 18.9712 61.3348C17.2913 71.5669 15.3006 81.7368 13.2863 91.9097C13.8024 91.6408 14.3185 91.3718 14.8502 91.0947C19.1211 88.9234 23.1533 87.2008 27.8499 86.0709C28.8669 85.8159 29.884 85.5608 30.9318 85.2979C33.6593 84.8882 35.2404 84.9971 37.8144 85.8826C34.1002 88.219 30.8945 88.055 26.5723 87.8916C26.5723 88.5546 26.5723 89.2176 26.5723 89.9007C25.6238 90.1907 24.6753 90.4808 23.698 90.7796C20.3402 91.7967 20.3402 91.7967 17.3743 93.9187C14.6277 94.0443 14.6277 94.0443 12.2643 93.9187C12.2367 91.7842 12.2169 89.6496 12.2004 87.5149C12.1885 86.3262 12.1767 85.1375 12.1645 83.9128C12.2643 80.86 12.2643 80.86 13.2863 78.851C13.5199 76.8043 13.7055 74.7522 13.8611 72.6984C13.9468 71.5977 14.0324 70.4971 14.1206 69.3631C14.1826 68.5162 14.2445 67.6693 14.3083 66.7968C13.6337 66.7968 12.9592 66.7968 12.2643 66.7968C12.3275 68.0399 12.3907 69.283 12.4559 70.5638C12.4724 73.6096 12.3731 74.6546 10.7313 77.3442C10.2254 77.8415 9.71947 78.3387 9.19824 78.851C9.9004 71.5265 11.1941 64.4121 12.6715 57.2029C12.9123 56.0213 13.1531 54.8396 13.4012 53.6221C13.9093 51.1388 14.4196 48.656 14.9321 46.1736C15.7142 42.3712 16.4805 38.5659 17.2465 34.7603C17.7433 32.3423 18.2409 29.9246 18.7396 27.507C18.9665 26.3696 19.1934 25.2322 19.4271 24.0603C19.6487 23.0038 19.8702 21.9472 20.0985 20.8587C20.2883 19.9313 20.4781 19.0038 20.6737 18.0483C21.5488 15.2943 22.4771 13.6128 24.5283 11.5486C28.297 11.2974 28.297 11.2974 31.6824 11.5486C32.3569 8.23366 33.0314 4.91877 33.7264 1.50342Z" fill="#EEB159"/>
<path d="M167.609 36.6614C168.283 36.9929 168.958 37.3244 169.653 37.6659C169.316 38.6604 168.978 39.6548 168.631 40.6794C169.643 40.3479 170.654 40.0165 171.697 39.6749C173.383 41.3324 175.069 42.9898 176.807 44.6975C175.605 45.1326 175.605 45.1326 174.38 45.5764C171.598 46.555 171.598 46.555 169.653 48.7155C168.267 54.8951 168.589 58.2393 171.697 63.7833C174.155 64.9914 175.734 64.8889 178.468 64.8506C179.303 64.8415 180.138 64.8324 180.999 64.8231C181.639 64.8114 182.279 64.7998 182.939 64.7878C182.602 65.4508 182.264 66.1137 181.917 66.7968C179.544 67.2059 177.158 67.5445 174.763 67.8013C174.763 69.4588 174.763 71.1162 174.763 72.8239C176.786 73.1554 178.81 73.4869 180.895 73.8284C180.895 74.1599 180.895 74.4914 180.895 74.8329C169.787 75.4155 169.787 75.4155 164.543 71.8194C159.596 66.7362 157.1 62.4357 157.069 55.3705C157.21 49.6542 157.975 45.1261 162.251 40.9227C163.993 39.4323 165.76 38.0207 167.609 36.6614Z" fill="white"/>
<path d="M80.7385 95.9277C80.7385 96.5907 80.7385 97.2537 80.7385 97.9367C81.5606 98.2475 82.3827 98.5583 83.2297 98.8785C85.8486 99.9458 85.8486 99.9458 86.8706 100.95C92.2298 101.858 96.8767 102.377 102.201 100.95C103.229 99.955 104.224 98.9271 105.195 97.8779C109.48 94.1504 113.235 94.373 118.766 94.6524C119.897 94.7418 121.028 94.8311 122.194 94.9232C123.329 94.9814 124.464 95.0397 125.633 95.0998C131.056 95.4251 135.974 95.8377 141.037 97.9367C141.037 98.5997 141.037 99.2627 141.037 99.9458C139.854 100.059 139.854 100.059 138.646 100.175C135.077 100.524 131.51 100.894 127.942 101.264C126.701 101.383 125.459 101.501 124.18 101.623C122.991 101.749 121.802 101.876 120.577 102.006C119.48 102.116 118.382 102.227 117.252 102.341C114.23 103.011 113.375 103.736 111.399 105.973C110.724 105.973 110.05 105.973 109.355 105.973C109.355 106.636 109.355 107.299 109.355 107.982C100.184 111.085 93.2342 112.258 83.8045 108.986C82.7928 108.323 81.781 107.66 80.7385 106.977C83.0994 106.314 85.4602 105.651 87.8926 104.968C87.5553 105.963 87.218 106.957 86.8706 107.982C92.9413 107.982 99.012 107.982 105.267 107.982C105.604 105.993 105.941 104.004 106.289 101.955C105.277 102.618 104.265 103.281 103.223 103.964C100.495 104.161 97.8987 104.244 95.1744 104.215C94.4511 104.223 93.7278 104.23 92.9826 104.238C88.7903 104.223 85.5294 103.785 81.7605 101.955C81.7605 101.292 81.7605 100.629 81.7605 99.9458C81.086 99.9458 80.4115 99.9458 79.7165 99.9458C79.2106 98.9513 79.2106 98.9513 78.6945 97.9367C74.6982 97.8863 70.702 97.8502 66.7054 97.8264C64.6934 97.8115 62.6815 97.786 60.6697 97.7601C53.3907 97.7238 46.5475 98.1025 39.4012 99.4984C35.7505 100.124 32.3119 100.085 28.6162 99.9458C37.2648 94.2787 51.2901 95.52 61.3843 95.2371C62.6905 95.1898 63.9967 95.1426 65.3426 95.0939C75.7939 94.7653 75.7939 94.7653 80.7385 95.9277Z" fill="#F5AA3C"/>
<path d="M228.929 36.6614C232.302 36.6614 235.675 36.6614 239.149 36.6614C239.149 48.9265 239.149 61.1916 239.149 73.8284C238.138 73.4969 237.126 73.1654 236.083 72.8239C234.383 72.4741 232.68 72.1368 230.973 71.8194C230.973 70.1619 230.973 68.5045 230.973 66.7968C230.004 66.9833 229.034 67.1697 228.035 67.3618C224.841 67.8013 224.841 67.8013 222.797 66.7968C223.623 66.0587 224.449 65.3206 225.3 64.5602C229.305 59.8368 228.706 54.213 228.738 48.3389C228.763 47.2162 228.789 46.0935 228.816 44.9368C228.876 42.178 228.913 39.4207 228.929 36.6614Z" fill="white"/>
<path d="M329.086 55.7472C329.486 56.2651 329.887 56.7831 330.299 57.3167C331.216 58.0315 331.216 58.0315 332.152 58.7607C334.767 58.4307 334.767 58.4307 337.262 57.7562C340.078 59.1403 340.827 61.1429 342.372 63.7833C344.286 65.6644 346.968 65.025 349.518 65.1174C351.68 64.9783 351.68 64.9783 353.035 63.2771C354.636 61.7743 354.636 61.7743 357.171 61.48C358.54 61.5324 358.54 61.5324 359.938 61.5859C361.319 61.6267 361.319 61.6267 362.728 61.6683C363.43 61.7033 364.133 61.7383 364.856 61.7743C363.333 67.6252 360.758 71.0217 355.466 74.1424C348.623 75.7865 342.181 75.6591 335.996 72.1451C332.859 69.8272 330.634 67.3474 329.086 63.7833C328.698 60.9565 328.83 58.6174 329.086 55.7472Z" fill="white"/>
<path d="M288.206 36.6614C291.241 36.6614 294.276 36.6614 297.404 36.6614C297.404 48.9265 297.404 61.1916 297.404 73.8284C294.368 73.8284 291.333 73.8284 288.206 73.8284C288.206 61.5633 288.206 49.2982 288.206 36.6614Z" fill="white"/>
<path d="M362.812 43.693C364.76 46.9193 365.084 49.2568 364.984 52.9847C364.966 53.8808 364.947 54.7769 364.928 55.7001C364.904 56.3786 364.881 57.0571 364.856 57.7562C360.4 57.8999 355.944 58.0429 351.489 58.1854C349.973 58.2339 348.457 58.2826 346.941 58.3315C344.762 58.4018 342.583 58.4714 340.404 58.541C339.093 58.5831 337.781 58.6251 336.43 58.6685C334.324 58.7282 332.216 58.7607 330.108 58.7607C329.738 57.1302 329.378 55.4974 329.022 53.8637C328.821 52.9547 328.619 52.0457 328.411 51.1091C328.064 48.7156 328.064 48.7156 329.086 46.7065C332.152 47.7111 332.152 47.7111 333.174 49.7201C334.523 49.7201 335.872 49.7201 337.262 49.7201C337.262 50.3831 337.262 51.046 337.262 51.7291C337.937 51.7291 338.611 51.7291 339.306 51.7291C339.643 51.0661 339.981 50.4031 340.328 49.7201C340.328 50.3831 340.328 51.046 340.328 51.7291C345.387 51.7291 350.446 51.7291 355.658 51.7291C355.658 50.0717 355.658 48.4142 355.658 46.7065C358.094 44.8795 359.703 43.693 362.812 43.693Z" fill="white"/>
<path d="M151.257 0.498957C150.92 1.49343 150.582 2.4879 150.235 3.5125C148.678 3.76889 148.678 3.76889 147.089 4.03045C134.707 6.14023 123.677 9.04 112.704 15.2959C110.377 16.5712 110.377 16.5712 107.311 17.5757C107.311 18.2387 107.311 18.9017 107.311 19.5847C106.636 19.5847 105.962 19.5847 105.267 19.5847C105.267 20.2477 105.267 20.9107 105.267 21.5938C104.592 21.5938 103.918 21.5938 103.223 21.5938C103.223 22.2567 103.223 22.9197 103.223 23.6028C102.548 23.6028 101.874 23.6028 101.179 23.6028C100.841 24.2658 100.504 24.9287 100.157 25.6118C100.157 23.9544 100.157 22.2969 100.157 20.5892C99.1448 21.2522 98.133 21.9152 97.0905 22.5983C94.3439 22.7238 94.3439 22.7238 91.9805 22.5983C91.6432 20.9408 91.306 19.2834 90.9585 17.5757C91.7384 18.0937 92.5183 18.6116 93.3219 19.1453C94.2283 19.6218 95.1347 20.0983 96.0685 20.5892C97.0803 20.2578 98.0921 19.9263 99.1345 19.5847C99.1345 18.9217 99.1345 18.2588 99.1345 17.5757C101.572 15.858 103.994 14.2825 106.544 12.7415C107.286 12.2902 108.029 11.8389 108.794 11.374C114.876 7.75134 121.019 4.80008 127.751 2.50799C128.421 2.26325 129.092 2.01852 129.783 1.76637C136.644 -0.35634 144.144 0.335095 151.257 0.498957Z" fill="#EEAE58"/>
<path d="M251.414 24.6073C253.585 24.984 253.585 24.984 255.502 25.6118C255.038 26.4198 254.574 27.2278 254.096 28.0603C253.339 32.3017 253.915 32.9528 256.268 36.4103C257.956 38.6892 259.605 40.6946 261.634 42.6886C261.974 48.046 261.974 48.046 260.612 50.7247C252.119 49.7616 252.119 49.7616 249.37 47.7111C245.54 42.4832 244.453 39.0568 245.281 32.6434C247.066 29.4858 248.826 27.1501 251.414 24.6073Z" fill="white"/>
<path d="M51.1005 73.8285C58.7463 74.1121 64.0296 77.0263 70.5186 80.8601C70.5186 81.5231 70.5186 82.186 70.5186 82.8691C71.8676 83.5321 73.2167 84.1951 74.6066 84.8781C74.6066 85.5411 74.6066 86.2041 74.6066 86.8872C75.2811 86.8872 75.9557 86.8872 76.6506 86.8872C77.3251 88.2131 77.9997 89.5391 78.6946 90.9052C74.9356 92.1368 72.6827 91.6114 68.7939 90.968C67.5885 90.7725 66.3831 90.577 65.1411 90.3755C64.2176 90.2188 63.294 90.0621 62.3425 89.9007C62.3425 89.5692 62.3425 89.2377 62.3425 88.8962C63.6916 88.5647 65.0406 88.2332 66.4306 87.8917C63.4517 86.9157 61.0385 86.6034 57.9232 86.3496C56.8725 86.2622 55.8219 86.1748 54.7394 86.0847C53.6439 85.9973 52.5485 85.9099 51.4198 85.8199C50.3125 85.7286 49.2052 85.6373 48.0644 85.5432C45.3293 85.3182 42.594 85.0967 39.8584 84.8781C39.8584 84.5467 39.8584 84.2152 39.8584 83.8736C47.5206 82.7248 54.645 83.1135 62.3425 83.8736C56.5232 81.7685 51.1495 80.4079 44.9684 79.8556C44.9684 79.5241 44.9684 79.1926 44.9684 78.8511C49.5215 78.3538 49.5215 78.3538 54.1665 77.8465C53.1547 76.5206 52.1429 75.1946 51.1005 73.8285Z" fill="#F0AC4D"/>
<path d="M33.726 12.5531C34.4005 12.5531 35.0751 12.5531 35.77 12.5531C36.1585 25.9751 35.2551 38.5353 32.704 51.7292C31.355 51.7292 30.0059 51.7292 28.616 51.7292C28.2787 52.3921 27.9415 53.0551 27.594 53.7382C25.9655 52.1376 26.3587 50.4918 26.3165 48.2761C26.3434 44.5312 26.8041 41.5147 28.0411 37.9799C29.9861 32.3782 30.0966 26.8669 30.2448 21.0091C30.6832 17.3834 31.459 15.4203 33.726 12.5531Z" fill="#F2A53A"/>
<path d="M33.7261 1.50342C34.0633 1.50342 34.4006 1.50342 34.7481 1.50342C35.0853 4.48683 35.4226 7.47023 35.7701 10.544C36.1073 8.8866 36.4446 7.22915 36.7921 5.52147C39.4902 5.52147 42.1883 5.52147 44.9681 5.52147C44.9681 5.85296 44.9681 6.18445 44.9681 6.52599C42.9445 6.52599 40.921 6.52599 38.8361 6.52599C38.6885 7.83123 38.541 9.13647 38.389 10.4813C37.8567 15.1899 37.3244 19.8986 36.7921 24.6072C36.4548 24.6072 36.1175 24.6072 35.7701 24.6072C35.7701 20.6294 35.7701 16.6515 35.7701 12.5531C32.5337 14.3947 32.5337 14.3947 30.66 17.5756C29.311 17.5756 27.9619 17.5756 26.572 17.5756C26.4952 18.141 26.4184 18.7064 26.3392 19.2889C24.7947 30.5501 23.1079 41.6679 20.44 52.7336C20.1027 52.7336 19.7655 52.7336 19.418 52.7336C19.562 50.2848 19.7118 47.8365 19.8651 45.3881C19.9053 44.6947 19.9455 44.0013 19.9869 43.2869C20.1837 40.2057 20.4637 37.5959 21.462 34.6524C21.5024 32.3089 21.507 29.9642 21.462 27.6208C20.7875 27.9523 20.1129 28.2838 19.418 28.6253C20.2812 15.7227 20.2812 15.7227 24.528 11.5486C26.9123 11.5074 29.2978 11.506 31.682 11.5486C32.3566 8.23366 33.0311 4.91877 33.7261 1.50342Z" fill="#EEB259"/>
<path d="M315.8 45.702C316.137 45.702 316.475 45.702 316.822 45.702C316.822 51.6688 316.822 57.6357 316.822 63.7833C319.857 64.1148 322.893 64.4463 326.02 64.7878C326.12 71.7527 326.12 71.7527 326.02 73.8284C324.998 74.8329 324.998 74.8329 321.229 75.0213C317.393 74.9873 314.273 74.2325 310.69 72.8239C310.69 72.1609 310.69 71.498 310.69 70.8149C310.016 70.8149 309.341 70.8149 308.646 70.8149C308.309 69.1574 307.972 67.5 307.624 65.7923C308.299 65.7923 308.973 65.7923 309.668 65.7923C310.005 64.4664 310.343 63.1404 310.69 61.7743C312.039 61.4428 313.388 61.1113 314.778 60.7697C315.115 55.7974 315.453 50.825 315.8 45.702Z" fill="white"/>
<path d="M68.4742 86.8871C69.486 87.2186 70.4978 87.5501 71.5402 87.8916C71.5402 88.2231 71.5402 88.5546 71.5402 88.8961C70.8775 88.9108 70.2147 88.9254 69.5319 88.9405C57.7742 89.2301 46.3576 89.5328 34.8718 92.1922C31.4393 92.9691 28.0189 93.4687 24.5279 93.9187C23.5161 92.5927 22.5044 91.2668 21.4619 89.9006C23.1482 89.9006 24.8345 89.9006 26.5719 89.9006C26.5719 89.2377 26.5719 88.5747 26.5719 87.8916C27.5324 87.6915 27.5324 87.6915 28.5122 87.4874C29.3474 87.31 30.1827 87.1327 31.0432 86.9499C32.2882 86.6877 32.2882 86.6877 33.5583 86.4202C44.3933 83.7866 57.465 83.8052 68.4742 86.8871Z" fill="#F59C21"/>
<path d="M289.228 37.666C291.453 42.0413 291.434 44.0498 291.272 48.8412C291.101 52.509 291.101 52.509 291.272 55.7473C291.946 56.4103 292.621 57.0732 293.316 57.7563C293.99 57.4248 294.665 57.0933 295.36 56.7518C295.776 54.4197 296.12 52.0739 296.382 49.7202C296.719 49.7202 297.056 49.7202 297.404 49.7202C297.404 57.6759 297.404 65.6317 297.404 73.8285C294.368 73.8285 291.333 73.8285 288.206 73.8285C288.543 61.8949 288.88 49.9613 289.228 37.666Z" fill="white"/>
<path d="M29.6379 17.5757C29.9752 17.5757 30.3125 17.5757 30.6599 17.5757C30.9544 25.6147 31.063 32.6642 28.2766 40.3146C27.0989 44.4098 27.3475 48.5178 27.5939 52.7337C29.1116 52.2364 29.1116 52.2364 30.6599 51.7292C30.6599 49.0772 30.6599 46.4253 30.6599 43.6931C30.9972 43.6931 31.3345 43.6931 31.6819 43.6931C31.9648 52.9908 31.203 61.6537 29.6379 70.8149C31.3242 71.1464 33.0106 71.4779 34.748 71.8194C34.748 72.1509 34.748 72.4824 34.748 72.824C32.3871 72.824 30.0263 72.824 27.5939 72.824C27.9312 68.1831 28.2684 63.5422 28.6159 58.7608C25.3853 61.9361 25.1532 62.333 24.8473 66.483C24.7465 67.7008 24.7465 67.7008 24.6437 68.9432C24.6055 69.5609 24.5673 70.1786 24.5279 70.8149C23.8534 70.8149 23.1789 70.8149 22.4839 70.8149C22.9877 52.8142 26.3233 35.2487 29.6379 17.5757Z" fill="#F1A945"/>
<path d="M50.871 101.841C52.1073 101.846 53.3437 101.851 54.6174 101.857C55.9513 101.86 57.2852 101.863 58.6596 101.867C60.0788 101.875 61.498 101.883 62.9173 101.892C64.3405 101.897 65.7637 101.902 67.1869 101.906C70.6822 101.918 74.1773 101.934 77.6725 101.955C77.6725 102.618 77.6725 103.281 77.6725 103.964C76.9639 103.984 76.2552 104.004 75.5252 104.024C53.1989 104.681 31.8663 106.993 9.8433 110.568C6.56736 111.089 3.28756 111.557 0 112C0.337262 109.68 0.674524 107.359 1.02201 104.968C1.35927 106.294 1.69653 107.62 2.04401 108.986C2.71854 108.841 3.39306 108.696 4.08802 108.547C6.56929 108.09 8.99288 107.759 11.4976 107.48C15.1132 107.394 15.1132 107.394 16.3521 105.973C18.9383 105.899 21.4959 105.88 24.081 105.91C24.8076 105.915 25.5341 105.919 26.2827 105.924C28.0826 105.936 29.8824 105.954 31.6822 105.973C31.6822 105.31 31.6822 104.647 31.6822 103.964C32.777 103.903 33.8718 103.842 34.9997 103.779C36.4276 103.695 37.8555 103.61 39.2834 103.524C40.3673 103.465 40.3673 103.465 41.4731 103.405C44.99 103.19 47.6014 101.972 50.871 101.841Z" fill="#EEB35A"/>
<path d="M98.1124 27.6207C98.4496 27.6207 98.7869 27.6207 99.1344 27.6207C99.3976 39.7092 99.014 51.7202 98.2401 63.7832C98.1599 65.0873 98.0797 66.3913 97.9971 67.7348C97.4662 75.5615 96.534 83.1977 95.0463 90.9051C94.3718 90.9051 93.6973 90.9051 93.0023 90.9051C92.9744 88.2263 92.9543 85.5479 92.9384 82.869C92.9299 82.1219 92.9213 81.3747 92.9125 80.6049C92.8902 75.5747 93.2932 70.7719 94.0243 65.7923C94.6989 65.7923 95.3734 65.7923 96.0683 65.7923C96.0446 64.9726 96.0209 64.1529 95.9965 63.3084C95.8109 51.3355 96.925 39.5288 98.1124 27.6207Z" fill="#EDB76A"/>
<path d="M167.609 56.7517C167.862 57.3318 168.115 57.9119 168.376 58.5096C169.959 61.311 171.065 62.8996 173.741 64.7878C176.837 65.1242 179.838 65.0223 182.939 64.7878C182.602 65.4508 182.265 66.1138 181.917 66.7969C179.545 67.206 177.158 67.5446 174.763 67.8014C174.763 69.4588 174.763 71.1163 174.763 72.8239C176.787 73.1554 178.81 73.4869 180.895 73.8285C180.895 74.1599 180.895 74.4914 180.895 74.833C173.495 75.2211 168.754 74.7569 162.563 70.4382C161.477 68.8059 161.477 68.8059 161.796 66.1062C162.028 65.3397 162.26 64.5731 162.499 63.7833C165.565 64.7878 165.565 64.7878 166.587 66.7969C167.77 63.3079 167.679 60.4075 167.609 56.7517Z" fill="white"/>
<path d="M80.7385 95.9277C80.7385 96.5907 80.7385 97.2537 80.7385 97.9368C81.5606 98.2475 82.3827 98.5583 83.2297 98.8785C85.8486 99.9458 85.8486 99.9458 86.8706 100.95C93.6788 102.104 100.114 102.582 106.289 98.9413C106.289 99.6043 106.289 100.267 106.289 100.95C105.614 100.95 104.94 100.95 104.245 100.95C103.907 101.945 103.57 102.939 103.223 103.964C100.603 104.018 97.9855 104.058 95.366 104.089C94.6289 104.106 93.8918 104.123 93.1323 104.14C88.8647 104.179 85.5937 103.842 81.7605 101.955C81.7605 101.292 81.7605 100.629 81.7605 99.9458C81.086 99.9458 80.4115 99.9458 79.7165 99.9458C79.2106 98.9513 79.2106 98.9513 78.6945 97.9368C74.6982 97.8863 70.702 97.8503 66.7054 97.8264C64.6934 97.8116 62.6815 97.786 60.6697 97.7602C53.3907 97.7239 46.5475 98.1025 39.4012 99.4985C35.7505 100.124 32.3119 100.086 28.6162 99.9458C37.2648 94.2787 51.2901 95.52 61.3843 95.2371C62.6905 95.1899 63.9967 95.1426 65.3426 95.0939C75.7939 94.7653 75.7939 94.7653 80.7385 95.9277Z" fill="#EEB667"/>
<path d="M354.636 61.7743C358.009 61.7743 361.381 61.7743 364.856 61.7743C363.55 66.7914 361.658 69.4216 357.702 72.8239C354.68 74.3089 351.833 73.8891 348.504 73.8285C348.525 73.0412 348.546 72.2539 348.568 71.4427C348.695 68.8248 348.695 68.8248 347.482 66.7969C348.968 66.3929 348.968 66.3929 350.484 65.9807C351.517 65.5871 352.55 65.1934 353.614 64.7878C353.951 63.7934 354.288 62.7989 354.636 61.7743Z" fill="white"/>
<path d="M21.4621 26.6163C21.7994 26.6163 22.1367 26.6163 22.4842 26.6163C22.7034 32.3273 22.0851 37.4577 20.9591 43.0613C20.5148 45.3221 20.161 47.5628 19.8653 49.8457C19.4181 52.7337 19.4181 52.7337 18.3961 53.7382C18.149 56.0366 18.0043 58.3335 17.8612 60.6403C17.3741 62.7789 17.3741 62.7789 14.3081 64.7879C14.8283 57.8044 15.4962 50.8398 16.2882 43.8814C16.3645 43.1739 16.4407 42.4663 16.5193 41.7373C17.8789 30.1383 17.8789 30.1383 21.4621 26.6163Z" fill="#F1A53E"/>
<path d="M34.748 0.498924C44.8469 0.128243 53.564 0.783524 63.3642 3.51247C59.5317 4.64255 59.5317 4.64255 57.2322 3.51247C57.2322 4.17545 57.2322 4.83843 57.2322 5.52149C50.4869 5.52149 43.7417 5.52149 36.7921 5.52149C36.7921 7.17894 36.7921 8.83639 36.7921 10.5441C35.7803 11.0413 35.7803 11.0413 34.748 11.5486C34.748 7.90219 34.748 4.25581 34.748 0.498924Z" fill="#F2A742"/>
<path d="M296.382 21.5937C298.577 24.8297 298.999 25.8725 298.426 29.6298C296.765 31.5133 296.765 31.5133 294.338 32.6433C288.793 32.2159 288.793 32.2159 287.184 30.6343C287.04 27.9517 287.14 25.2859 287.184 22.5982C290.575 20.4996 292.579 20.315 296.382 21.5937Z" fill="white"/>
<path d="M12.2638 66.7968C12.9384 66.7968 13.6129 66.7968 14.3079 66.7968C14.3354 68.7639 14.3552 70.7311 14.3717 72.6983C14.3836 73.7937 14.3954 74.8892 14.4077 76.0179C14.3079 78.8509 14.3079 78.8509 13.2858 80.86C13.2131 83.2447 13.1999 85.6314 13.222 88.0171C13.2312 89.3042 13.2404 90.5913 13.2499 91.9175C13.2618 92.9093 13.2736 93.9012 13.2858 94.9232C11.2623 94.5917 9.2387 94.2602 7.15381 93.9186C7.48699 87.7755 8.07524 82.4456 10.5272 76.7673C11.7322 73.5054 11.951 70.2408 12.2638 66.7968Z" fill="#F79D23"/>
<path d="M30.6603 28.6254C31.3349 28.9569 32.0094 29.2883 32.7043 29.6299C33.0117 37.2153 32.118 44.2843 30.6603 51.7292C29.9858 51.7292 29.3113 51.7292 28.6163 51.7292C28.2791 52.3922 27.9418 53.0552 27.5943 53.7382C26.003 52.1741 26.3217 50.707 26.2529 48.5273C26.2838 41.5648 28.5045 35.1902 30.6603 28.6254Z" fill="#FA9D1D"/>
<path d="M26.5719 58.7607C27.2464 58.7607 27.921 58.7607 28.6159 58.7607C28.6159 63.4016 28.6159 68.0425 28.6159 72.8239C30.9768 73.4869 33.3376 74.1499 35.77 74.833C35.77 75.1645 35.77 75.4959 35.77 75.8375C29.1934 76.3347 29.1934 76.3347 22.4839 76.842C22.4839 74.8531 22.4839 72.8641 22.4839 70.8149C23.1584 70.8149 23.8329 70.8149 24.5279 70.8149C24.5042 70.1973 24.4805 69.5796 24.456 68.9432C24.4376 68.1313 24.4192 67.3194 24.4001 66.4829C24.3764 65.6788 24.3527 64.8747 24.3283 64.0462C24.5279 61.7743 24.5279 61.7743 26.5719 58.7607Z" fill="#FB9D1A"/>
<path d="M24.5279 93.9187C20.2954 96.6921 15.804 98.7374 11.2419 100.95C19.842 100.453 19.842 100.453 28.616 99.9458C26.572 101.955 26.572 101.955 24.5838 102.151C22.5212 102.086 20.4586 102.02 18.3959 101.955C18.3959 102.618 18.3959 103.281 18.3959 103.964C14.3488 104.627 10.3016 105.29 6.13184 105.973C6.80636 104.978 7.48088 103.984 8.17585 102.959C8.56932 101.296 8.9198 99.6221 9.19785 97.9368C10.5469 97.9368 11.896 97.9368 13.2859 97.9368C13.2859 97.2738 13.2859 96.6108 13.2859 95.9277C17.2001 94.1173 20.2163 93.7216 24.5279 93.9187Z" fill="#EEAA4E"/>
<path d="M85.8486 20.5892C88.3398 21.4054 88.3398 21.4054 90.9587 22.5983C91.9468 25.512 92.1776 27.6146 92.304 30.6579C92.3469 31.6745 92.3898 32.691 92.434 33.7384C92.4741 34.8273 92.5142 35.9162 92.5555 37.0382C92.5989 38.1497 92.6423 39.2613 92.687 40.4066C93.0655 50.8798 93.1036 61.3413 93.0027 71.8195C92.6654 71.8195 92.3282 71.8195 91.9807 71.8195C91.1468 66.0226 90.8577 60.3026 90.779 54.4524C90.7668 53.697 90.7547 52.9417 90.7421 52.1636C90.692 49.001 90.6437 45.8388 90.6256 42.6758C90.6097 40.3434 90.5686 38.0125 90.5235 35.6805C90.5255 34.9761 90.5274 34.2717 90.5294 33.546C90.3934 28.1055 88.8037 25.0235 85.8486 20.5892Z" fill="#EEBA68"/>
<path d="M329.086 55.7472C329.486 56.2651 329.887 56.7831 330.299 57.3167C331.216 58.0315 331.216 58.0315 332.152 58.7607C334.768 58.4307 334.768 58.4307 337.262 57.7562C337.936 58.0877 338.611 58.4192 339.306 58.7607C339.306 62.7788 339.306 62.7788 338.284 65.7923C337.947 65.1294 337.609 64.4664 337.262 63.7833C336.25 63.7833 335.238 63.7833 334.196 63.7833C334.196 65.7722 334.196 67.7612 334.196 69.8104C329.218 65.1399 329.218 65.1399 328.886 61.7311C328.953 59.7365 329.019 57.7418 329.086 55.7472Z" fill="white"/>
<path d="M275.942 26.6163C279.133 29.146 279.974 30.3593 280.796 34.4013C280.923 36.0173 280.923 36.0173 281.052 37.666C277.679 37.666 274.306 37.666 270.832 37.666C270.832 35.6771 270.832 33.6881 270.832 31.6389C272.855 31.6389 274.879 31.6389 276.964 31.6389C276.626 29.9815 276.289 28.324 275.942 26.6163Z" fill="white"/>
<path d="M186.005 62.7788C186.005 63.7733 186.005 64.7677 186.005 65.7924C184.993 66.2896 184.993 66.2896 183.961 66.7969C183.545 69.1289 183.201 71.4748 182.939 73.8285C179.904 73.8285 176.869 73.8285 173.741 73.8285C174.078 71.8395 174.416 69.8506 174.763 67.8014C175.923 67.5113 177.082 67.2213 178.276 66.9224C179.478 66.5495 180.679 66.1766 181.917 65.7924C182.255 65.1294 182.592 64.4664 182.939 63.7833C183.951 63.4518 184.963 63.1203 186.005 62.7788Z" fill="white"/>
<path d="M182.939 65.7924C177.063 67.8014 177.063 67.8014 174.763 67.8014C174.763 69.4588 174.763 71.1163 174.763 72.824C177.798 73.3212 177.798 73.3212 180.895 73.8285C180.895 74.16 180.895 74.4914 180.895 74.833C170.105 75.2037 170.105 75.2037 165.565 72.824C165.902 71.8295 166.239 70.835 166.587 69.8104C168.275 69.1051 169.979 68.4345 171.697 67.8014C172.034 67.1384 172.372 66.4754 172.719 65.7924C180.294 64.4924 180.294 64.4924 182.939 65.7924Z" fill="white" fill-opacity="0.333333"/>
<path d="M85.8483 104.968C86.5228 105.3 87.1974 105.631 87.8923 105.973C87.5551 106.636 87.2178 107.299 86.8703 107.982C92.941 107.982 99.0118 107.982 105.266 107.982C105.266 107.319 105.266 106.656 105.266 105.973C106.615 105.973 107.965 105.973 109.354 105.973C109.354 106.636 109.354 107.299 109.354 107.982C100.184 111.085 93.234 112.258 83.8043 108.986C82.7925 108.323 81.7807 107.66 80.7383 106.977C83.1655 105.91 83.1655 105.91 85.8483 104.968Z" fill="#F1B562"/>
<path d="M49.1523 73.4204C52.0695 74.0314 53.4407 75.5559 55.1885 77.8465C54.1665 78.851 54.1665 78.851 52.0107 78.9844C43.0789 78.9584 43.0789 78.9584 38.8364 77.8465C41.8899 73.8448 44.2918 73.2064 49.1523 73.4204Z" fill="#F19C2A"/>
<path d="M51.1003 73.8285C58.0395 74.2005 62.6171 76.2441 68.4744 79.8556C64.7527 81.0749 64.0474 80.5261 60.6177 78.9138C59.7917 78.5319 58.9657 78.1499 58.1146 77.7563C57.172 77.3037 57.172 77.3037 56.2103 76.842C56.2103 77.505 56.2103 78.168 56.2103 78.8511C57.5594 79.514 58.9084 80.177 60.2984 80.8601C55.2394 80.5286 50.1805 80.1971 44.9683 79.8556C44.9683 79.5241 44.9683 79.1926 44.9683 78.8511C49.5213 78.3538 49.5213 78.3538 54.1663 77.8465C53.1545 76.5206 52.1427 75.1946 51.1003 73.8285Z" fill="#EFB563"/>
<path d="M134.905 96.9323C137.94 97.4295 137.94 97.4295 141.037 97.9368C141.037 98.5997 141.037 99.2627 141.037 99.9458C131.931 100.94 122.825 101.935 113.443 102.959C113.443 101.965 113.443 100.97 113.443 99.9458C120.525 99.2828 127.608 98.6198 134.905 97.9368C134.905 97.6053 134.905 97.2738 134.905 96.9323Z" fill="#E9B669"/>
<path d="M110.376 95.9277C118.471 95.9277 126.565 95.9277 134.905 95.9277C135.242 96.9222 135.579 97.9167 135.927 98.9413C133.009 98.7987 130.093 98.6515 127.176 98.5018C126.358 98.4623 125.541 98.4228 124.699 98.3821C119.867 98.1302 115.155 97.6824 110.376 96.9322C110.376 96.6008 110.376 96.2693 110.376 95.9277Z" fill="#E8A84B"/>
<path d="M230.973 66.7968C231.311 67.7912 231.648 68.7857 231.995 69.8103C231.658 70.4733 231.321 71.1363 230.973 71.8193C232.997 71.8193 235.021 71.8193 237.105 71.8193C236.768 72.4823 236.431 73.1453 236.083 73.8284C231.158 74.0645 227.434 73.2777 222.797 71.8193C222.797 71.1563 222.797 70.4934 222.797 69.8103C223.472 69.8103 224.146 69.8103 224.841 69.8103C224.841 69.1473 224.841 68.4843 224.841 67.8013C226.963 67.2453 228.77 66.7968 230.973 66.7968Z" fill="white"/>
<path d="M29.6383 17.5757C29.9756 17.5757 30.3128 17.5757 30.6603 17.5757C31.0495 28.2016 30.613 37.1222 25.5503 46.7066C26.1889 36.8802 27.9146 27.2613 29.6383 17.5757Z" fill="#EFB45E"/>
<path d="M125.707 6.52598C123.177 9.19065 121.016 11.2272 117.531 12.5531C116.519 12.5531 115.507 12.5531 114.465 12.5531C114.802 10.8956 115.139 9.23817 115.487 7.5305C122.258 5.3959 122.258 5.3959 125.707 6.52598Z" fill="#ECA84B"/>
<path d="M166.587 50.7246C166.924 50.7246 167.262 50.7246 167.609 50.7246C167.835 53.1935 168.046 55.6621 168.248 58.1329C168.314 58.8347 168.38 59.5366 168.447 60.2596C168.591 62.0994 168.618 63.9472 168.631 65.7923C167.957 66.4553 167.282 67.1183 166.587 67.8014C166.25 66.8069 165.913 65.8124 165.565 64.7878C162.62 65.6739 162.62 65.6739 160.455 66.7968C160.792 65.1394 161.13 63.4819 161.477 61.7743C163.163 61.4428 164.85 61.1113 166.587 60.7698C166.587 57.4549 166.587 54.14 166.587 50.7246Z" fill="white"/>
<path d="M63.3643 9.53955C65.7251 9.53955 68.0859 9.53955 70.5183 9.53955C70.5183 10.2025 70.5183 10.8655 70.5183 11.5486C71.3825 11.445 72.2468 11.3414 73.1372 11.2347C77.6751 11.6401 80.56 13.4577 83.8044 16.5712C83.8044 17.2341 83.8044 17.8971 83.8044 18.5802C73.5843 14.5621 73.5843 14.5621 63.3643 10.5441C63.3643 10.2126 63.3643 9.88109 63.3643 9.53955Z" fill="#EFB763"/>
<path d="M59.2764 5.52153C64.5058 5.21918 67.2328 5.6382 71.5404 8.53507C73.2305 9.23645 74.9307 9.91627 76.6505 10.5441C76.6505 10.8756 76.6505 11.2071 76.6505 11.5486C74.6269 11.5486 72.6033 11.5486 70.5184 11.5486C70.5184 10.8856 70.5184 10.2227 70.5184 9.53959C68.1576 9.53959 65.7968 9.53959 63.3644 9.53959C63.3644 8.87661 63.3644 8.21363 63.3644 7.53056C62.0153 7.53056 60.6663 7.53056 59.2764 7.53056C59.2764 6.86758 59.2764 6.2046 59.2764 5.52153Z" fill="#F89D20"/>
<path d="M8.17595 78.8511C9.40461 82.398 8.98877 85.0077 8.23982 88.6451C8.04089 89.6344 7.84196 90.6237 7.637 91.6429C7.47759 92.394 7.31818 93.145 7.15394 93.9188C7.82847 94.2503 8.50299 94.5818 9.19796 94.9233C8.18617 95.2548 7.17438 95.5863 6.13194 95.9278C5.31216 97.8101 5.31216 97.8101 4.9183 100.009C4.75626 100.745 4.59422 101.482 4.42726 102.241C4.25929 103.094 4.25929 103.094 4.08792 103.964C3.75066 103.964 3.4134 103.964 3.06592 103.964C3.70578 98.1383 4.77677 92.5746 6.19581 86.8872C6.38618 86.109 6.57655 85.3307 6.77269 84.5289C7.23648 82.6354 7.70565 80.7431 8.17595 78.8511Z" fill="#F1BD6E"/>
<path d="M56.2105 76.842C61.8708 77.4602 61.8708 77.4602 64.2588 79.4161C64.8279 80.1309 64.8279 80.1309 65.4085 80.8601C65.0713 81.1916 64.734 81.5231 64.3865 81.8646C65.0611 82.5276 65.7356 83.1906 66.4305 83.8736C62.6668 83.2714 58.9235 82.6204 55.1885 81.8646C55.5257 80.2072 55.863 78.5497 56.2105 76.842Z" fill="#F0AD59"/>
<path d="M24.5283 93.9187C21.787 95.715 19.1087 97.1346 16.1607 98.5646C15.2398 99.0126 14.3189 99.4606 13.3701 99.9223C12.3168 100.431 12.3168 100.431 11.2423 100.95C12.254 101.613 13.2658 102.276 14.3083 102.959C12.622 103.291 10.9357 103.622 9.19824 103.964C9.19824 101.975 9.19824 99.986 9.19824 97.9368C10.5473 97.9368 11.8963 97.9368 13.2863 97.9368C13.2863 97.2738 13.2863 96.6108 13.2863 95.9277C17.2004 94.1173 20.2167 93.7216 24.5283 93.9187Z" fill="#EFB867"/>
<path d="M17.3741 48.7156C17.7114 48.7156 18.0486 48.7156 18.3961 48.7156C18.3074 51.0183 18.1969 53.3202 18.0768 55.6216C18.0175 56.9035 17.9582 58.1855 17.8971 59.5063C17.7245 60.5862 17.5519 61.6661 17.3741 62.7788C16.3623 63.4418 15.3506 64.1047 14.3081 64.7878C14.4252 62.8618 14.5555 60.9366 14.6914 59.0118C14.7625 57.9397 14.8336 56.8675 14.9069 55.7629C15.3023 52.9325 15.8992 51.1435 17.3741 48.7156Z" fill="#F59D23"/>
<path d="M87.8924 103.964C86.8065 105.533 86.8065 105.533 84.8264 106.977C81.0578 106.664 81.0578 106.664 77.6724 105.973C77.6724 104.978 77.6724 103.984 77.6724 102.959C81.6957 101.641 83.932 102.715 87.8924 103.964Z" fill="#F2A12C"/>
<path d="M47.0125 88.8963C47.0125 89.2278 47.0125 89.5593 47.0125 89.9008C44.607 90.3846 42.201 90.8655 39.7945 91.3448C39.1233 91.4801 38.4521 91.6154 37.7605 91.7548C33.3632 92.6277 28.9749 93.3335 24.5283 93.9188C25.2028 93.2559 25.8774 92.5929 26.5723 91.9098C27.5841 91.9098 28.5959 91.9098 29.6384 91.9098C29.6384 91.2468 29.6384 90.5839 29.6384 89.9008C35.4739 89.1573 41.1276 88.7911 47.0125 88.8963Z" fill="#EAB362"/>
<path d="M22.484 59.7653C22.8212 59.7653 23.1585 59.7653 23.506 59.7653C23.506 66.0636 23.506 72.3619 23.506 78.851C22.1569 78.851 20.8079 78.851 19.418 78.851C20.4298 72.5527 21.4415 66.2544 22.484 59.7653Z" fill="#EEBF77"/>
<path d="M22.484 30.6343C22.8212 30.6343 23.1585 30.6343 23.506 30.6343C23.9736 38.2947 22.2237 45.3032 20.44 52.7336C20.1027 52.7336 19.7655 52.7336 19.418 52.7336C19.5357 50.3679 19.6652 48.0038 19.8012 45.6392C19.8724 44.3223 19.9435 43.0054 20.0168 41.6486C20.438 37.6846 21.2551 34.4101 22.484 30.6343Z" fill="#EDB96C"/>
<path d="M90.9585 17.5757C91.7384 18.0936 92.5183 18.6116 93.3219 19.1452C94.2283 19.6218 95.1347 20.0983 96.0685 20.5892C97.0803 20.2577 98.0921 19.9262 99.1345 19.5847C99.1345 18.9217 99.1345 18.2588 99.1345 17.5757C99.8091 17.5757 100.484 17.5757 101.179 17.5757C101.853 19.5646 102.528 21.5536 103.223 23.6028C102.548 23.6028 101.874 23.6028 101.179 23.6028C100.841 24.2657 100.504 24.9287 100.157 25.6118C100.157 23.9543 100.157 22.2969 100.157 20.5892C99.1448 21.2522 98.133 21.9152 97.0905 22.5983C94.3439 22.7238 94.3439 22.7238 91.9805 22.5983C91.6432 20.9408 91.306 19.2834 90.9585 17.5757Z" fill="#F1B760"/>
<path d="M5.11 97.9368C5.44726 97.9368 5.78452 97.9368 6.132 97.9368C6.132 99.5942 6.132 101.252 6.132 102.959C6.80653 103.291 7.48105 103.622 8.17602 103.964C6.15244 104.958 6.15244 104.958 4.08799 105.973C4.08799 106.967 4.08799 107.962 4.08799 108.986C4.76252 109.318 5.43704 109.649 6.132 109.991C4.44569 109.991 2.75938 109.991 1.02197 109.991C1.35923 108.002 1.6965 106.013 2.04398 103.964C2.7185 103.964 3.39303 103.964 4.08799 103.964C4.42525 101.975 4.76252 99.986 5.11 97.9368Z" fill="#F19F2E"/>
<path d="M45.2236 84.7525C46.5147 84.7707 47.8058 84.7888 49.136 84.8075C50.1215 84.8308 51.1069 84.8541 52.1222 84.8781C52.1222 85.2096 52.1222 85.5411 52.1222 85.8826C46.5574 86.3798 46.5574 86.3798 40.8801 86.8871C41.2174 87.5501 41.5546 88.2131 41.9021 88.8962C39.5387 89.5868 39.5387 89.5868 36.7921 89.9007C34.9397 88.4567 34.9397 88.4567 33.7261 86.8871C37.5118 84.5005 40.8084 84.6722 45.2236 84.7525Z" fill="#F49D29"/>
<path d="M135.927 0.498901C140.986 0.498901 146.045 0.498901 151.257 0.498901C150.92 1.49337 150.582 2.48784 150.235 3.51244C146.862 3.84393 143.49 4.17542 140.015 4.51696C140.015 3.85398 140.015 3.191 140.015 2.50793C138.666 1.84495 137.317 1.18197 135.927 0.498901Z" fill="#EABB79"/>
<path d="M169.653 36.6614C172.351 36.6614 175.049 36.6614 177.829 36.6614C177.51 38.6076 177.51 38.6076 176.807 40.6794C173.445 41.781 171.99 41.4826 168.631 40.6794C168.968 39.3535 169.305 38.0275 169.653 36.6614Z" fill="white"/>
<path d="M112.421 96.9323C117.817 97.2637 123.213 97.5952 128.773 97.9368C128.773 98.2683 128.773 98.5997 128.773 98.9413C123.839 100.193 117.117 101.249 112.421 98.9413C112.421 98.2783 112.421 97.6153 112.421 96.9323Z" fill="#FA9C1F"/>
<path d="M320.91 70.8149C320.91 71.8094 320.91 72.8039 320.91 73.8285C322.259 74.16 323.608 74.4914 324.998 74.833C323.712 74.8537 322.426 74.8744 321.102 74.8958C320.378 74.9074 319.655 74.9191 318.91 74.9311C316.822 74.833 316.822 74.833 313.756 73.8285C313.756 73.1655 313.756 72.5025 313.756 71.8194C317.461 69.6848 317.461 69.6848 320.91 70.8149Z" fill="white"/>
<path d="M113.443 8.53503C114.117 9.86099 114.792 11.187 115.487 12.5531C113.8 13.879 112.114 15.205 110.377 16.5711C109.702 15.2452 109.027 13.9192 108.333 12.5531C110.019 11.2271 111.705 9.90117 113.443 8.53503Z" fill="#EEB45D"/>
<path d="M195.203 58.7607C195.541 58.7607 195.878 58.7607 196.225 58.7607C196.225 63.7331 196.225 68.7054 196.225 73.8285C193.864 73.8285 191.504 73.8285 189.071 73.8285C189.409 73.1655 189.746 72.5025 190.093 71.8194C191.442 71.4879 192.791 71.1564 194.181 70.8149C194.519 66.837 194.856 62.8592 195.203 58.7607Z" fill="white"/>
<path d="M146.147 1.50337C146.147 1.83486 146.147 2.16635 146.147 2.50789C144.124 2.50789 142.1 2.50789 140.015 2.50789C140.015 3.17087 140.015 3.83385 140.015 4.51692C136.642 4.51692 133.27 4.51692 129.795 4.51692C129.795 4.18543 129.795 3.85394 129.795 3.5124C135.308 1.23073 140.282 1.29832 146.147 1.50337ZM127.751 4.51692C129.795 5.52143 129.795 5.52143 129.795 5.52143L127.751 4.51692Z" fill="#E89A2F"/>
<path d="M44.9683 74.8329C48.0036 75.1644 51.039 75.4959 54.1663 75.8374C54.1663 76.8319 54.1663 77.8263 54.1663 78.8509C51.131 78.5195 48.0956 78.188 44.9683 77.8464C44.9683 76.852 44.9683 75.8575 44.9683 74.8329Z" fill="#FB9E1D"/>
<path d="M347.482 66.7968C349.168 66.7968 350.855 66.7968 352.592 66.7968C352.571 67.584 352.55 68.3713 352.528 69.1825C352.401 71.8004 352.401 71.8004 353.614 73.8284C351.928 73.8284 350.241 73.8284 348.504 73.8284C348.525 73.0411 348.546 72.2538 348.568 71.4426C348.695 68.8247 348.695 68.8247 347.482 66.7968Z" fill="white"/>
<path d="M65.4082 4.51697C67.0294 4.94573 68.6468 5.38784 70.2627 5.83539C71.6144 6.20249 71.6144 6.20249 72.9934 6.57701C75.6873 7.55186 77.5231 8.74603 79.7163 10.5441C73.623 10.131 70.1954 9.28569 65.4082 5.52148C65.4082 5.18999 65.4082 4.8585 65.4082 4.51697Z" fill="#EEB766"/>
<path d="M34.748 2.50793C36.4344 2.50793 38.1207 2.50793 39.8581 2.50793C39.5208 3.5024 39.1836 4.49687 38.8361 5.52148C38.1615 5.52148 37.487 5.52148 36.7921 5.52148C36.7921 7.17893 36.7921 8.83637 36.7921 10.544C35.7803 11.0413 35.7803 11.0413 34.748 11.5486C34.748 8.56516 34.748 5.58175 34.748 2.50793Z" fill="#F69D1E"/>
<path d="M14.3081 77.8466C15.2629 80.8705 15.3756 81.7305 14.3081 84.8782C14.24 86.2788 14.2208 87.6825 14.2442 89.0846C14.2653 90.3484 14.2864 91.6122 14.3081 92.9143C13.2963 93.4115 13.2963 93.4115 12.2641 93.9188C12.2089 91.8054 12.1692 89.6916 12.1363 87.5778C12.1126 86.4007 12.0889 85.2237 12.0645 84.011C12.2641 80.8601 12.2641 80.8601 14.3081 77.8466Z" fill="#F0C06C"/>
<path d="M148.191 63.7834C149.894 63.7404 151.598 63.7425 153.301 63.7834C154.323 64.7879 154.323 64.7879 154.423 66.8636C154.411 67.691 154.399 68.5185 154.387 69.371C154.378 70.201 154.368 71.031 154.359 71.8862C154.341 72.8476 154.341 72.8476 154.323 73.8285C153.986 73.8285 153.648 73.8285 153.301 73.8285C152.964 71.1766 152.626 68.5247 152.279 65.7924C150.593 65.7924 148.906 65.7924 147.169 65.7924C147.506 65.1294 147.843 64.4664 148.191 63.7834Z" fill="white"/>
<path d="M301.492 38.6704C302.166 39.3334 302.841 39.9964 303.536 40.6794C305.222 40.0165 306.908 39.3535 308.646 38.6704C308.308 40.3279 307.971 41.9853 307.624 43.693C305.6 43.693 303.577 43.693 301.492 43.693C301.492 42.0355 301.492 40.3781 301.492 38.6704Z" fill="white"/>
<path d="M354.636 61.7743C358.009 61.7743 361.381 61.7743 364.856 61.7743C364.182 63.7632 363.507 65.7522 362.812 67.8014C360.768 66.7969 360.768 66.7969 359.746 63.7833C358.06 63.4518 356.374 63.1203 354.636 62.7788C354.636 62.4473 354.636 62.1158 354.636 61.7743Z" fill="white"/>
<path d="M228.929 36.6614C230.278 36.9929 231.627 37.3244 233.017 37.6659C232.543 38.4428 232.543 38.4428 232.059 39.2354C230.676 42.3536 230.346 45.3516 229.951 48.7155C229.614 48.7155 229.277 48.7155 228.929 48.7155C228.929 44.7377 228.929 40.7598 228.929 36.6614Z" fill="white"/>
<path d="M85.8483 104.968C86.5228 105.3 87.1974 105.631 87.8923 105.973C87.5551 106.636 87.2178 107.299 86.8703 107.982C87.8821 108.313 88.8939 108.645 89.9363 108.986C89.9363 109.318 89.9363 109.649 89.9363 109.991C86.7209 110.254 85.2163 110.24 82.4629 108.484C81.8938 107.987 81.3247 107.49 80.7383 106.977C83.1655 105.91 83.1655 105.91 85.8483 104.968Z" fill="#F0AC52"/>
<path d="M62.3423 88.8961C67.4012 88.8961 72.4601 88.8961 77.6724 88.8961C77.6724 89.8906 77.6724 90.8851 77.6724 91.9097C70.084 90.9152 70.084 90.9152 62.3423 89.9006C62.3423 89.5691 62.3423 89.2377 62.3423 88.8961Z" fill="#EBB270"/>
<path d="M182.939 68.8059C185.3 69.4689 187.661 70.1319 190.093 70.8149C189.756 71.8094 189.418 72.8039 189.071 73.8285C186.036 73.3312 186.036 73.3312 182.939 72.824C182.939 71.498 182.939 70.172 182.939 68.8059Z" fill="white"/>
<path d="M85.8486 20.5892C88.3781 21.5837 88.3781 21.5837 90.9587 22.5983C91.2959 25.5817 91.6332 28.5651 91.9807 31.6389C91.3061 30.3129 90.6316 28.987 89.9367 27.6208C89.2222 26.3599 88.4987 25.104 87.7649 23.8539C87.1325 22.7766 86.5002 21.6992 85.8486 20.5892Z" fill="#F0B966"/>
<path d="M72.5626 83.8735C73.2371 84.205 73.9116 84.5365 74.6066 84.878C74.6066 85.541 74.6066 86.204 74.6066 86.8871C75.2811 86.8871 75.9556 86.8871 76.6506 86.8871C76.6506 87.8815 76.6506 88.876 76.6506 89.9006C74.1595 89.5239 74.1595 89.5239 71.5406 88.8961C71.2033 88.2331 70.866 87.5701 70.5186 86.8871C71.1931 86.5556 71.8676 86.2241 72.5626 85.8826C72.5626 85.2196 72.5626 84.5566 72.5626 83.8735Z" fill="#F2A647"/>
<path d="M346.46 71.8195C348.484 72.4824 350.507 73.1454 352.592 73.8285C352.592 74.16 352.592 74.4915 352.592 74.833C350.953 74.8874 349.314 74.9263 347.674 74.9586C346.761 74.9819 345.848 75.0052 344.907 75.0292C342.372 74.833 342.372 74.833 339.306 72.824C340.792 72.855 340.792 72.855 342.308 72.8868C345.31 73.1818 345.31 73.1818 346.46 71.8195Z" fill="white"/>
<path d="M158.411 50.7246C159.085 51.7191 159.76 52.7135 160.455 53.7382C161.467 54.0696 162.478 54.4011 163.521 54.7427C162.509 56.2344 162.509 56.2344 161.477 57.7562C160.465 57.7562 159.453 57.7562 158.411 57.7562C157.456 54.7323 157.343 53.8723 158.411 50.7246Z" fill="white"/>
<path d="M302.514 35.657C303.526 36.9829 304.537 38.3089 305.58 39.675C303.893 41.001 302.207 42.327 300.47 43.6931C300.47 41.3727 300.47 39.0522 300.47 36.6615C301.144 36.33 301.819 35.9985 302.514 35.657Z" fill="white"/>
<path d="M224.841 67.8014C226.19 67.8014 227.539 67.8014 228.929 67.8014C228.592 69.1274 228.255 70.4533 227.907 71.8194C226.221 71.8194 224.535 71.8194 222.797 71.8194C222.797 71.1565 222.797 70.4935 222.797 69.8104C223.472 69.8104 224.146 69.8104 224.841 69.8104C224.841 69.1474 224.841 68.4845 224.841 67.8014Z" fill="white"/>
<path d="M182.939 65.7924C177.063 67.8014 177.063 67.8014 174.763 67.8014C174.426 68.7959 174.089 69.7903 173.741 70.815C173.404 69.1575 173.067 67.5001 172.719 65.7924C180.64 64.6623 180.64 64.6623 182.939 65.7924Z" fill="white"/>
<path d="M301.492 43.693C303.515 43.693 305.539 43.693 307.624 43.693C308.298 45.019 308.973 46.3449 309.668 47.7111C308.656 48.7055 307.644 49.7 306.602 50.7246C306.602 48.7357 306.602 46.7467 306.602 44.6975C304.915 44.6975 303.229 44.6975 301.492 44.6975C301.492 44.366 301.492 44.0345 301.492 43.693Z" fill="white"/>
<path d="M265.722 43.693C266.734 44.356 267.745 45.019 268.788 45.702C267.766 47.7111 267.766 47.7111 264.7 49.7201C264.061 47.8366 264.061 47.8366 263.678 45.702C264.352 45.039 265.027 44.3761 265.722 43.693Z" fill="white"/>
<path d="M335.218 38.6704C336.567 39.0019 337.916 39.3334 339.306 39.6749C338.284 41.684 338.284 41.684 336.24 42.6885C335.228 44.1802 335.228 44.1802 334.196 45.702C333.521 45.3705 332.847 45.039 332.152 44.6975C333.164 42.7086 334.175 40.7196 335.218 38.6704Z" fill="white"/>
<path d="M56.2105 76.842C62.087 77.5954 62.087 77.5954 64.3865 79.8556C61.3512 79.8556 58.3158 79.8556 55.1885 79.8556C55.5257 78.8611 55.863 77.8666 56.2105 76.842Z" fill="#F69D1C"/>
<path d="M273.898 68.8059C276.069 69.7476 276.069 69.7476 277.986 70.8149C275.558 72.3845 275.558 72.3845 272.876 73.8285C272.201 73.497 271.527 73.1655 270.832 72.824C271.169 71.8295 271.506 70.835 271.854 69.8104C272.528 69.4789 273.203 69.1474 273.898 68.8059Z" fill="white"/>
<path d="M306.602 27.6207C307.951 27.6207 309.3 27.6207 310.69 27.6207C310.353 28.6152 310.016 29.6097 309.668 30.6343C308.994 30.6343 308.319 30.6343 307.624 30.6343C307.624 32.6232 307.624 34.6121 307.624 36.6614C307.287 36.6614 306.95 36.6614 306.602 36.6614C306.602 33.6779 306.602 30.6945 306.602 27.6207Z" fill="white"/>
<path d="M287.184 26.6163C289.228 27.9975 289.228 27.9975 291.272 29.6299C291.272 30.2929 291.272 30.9558 291.272 31.6389C292.283 31.9704 293.295 32.3019 294.338 32.6434C291.302 32.1462 291.302 32.1462 288.206 31.6389C287.868 29.9815 287.531 28.324 287.184 26.6163Z" fill="white"/>
</svg>
