<svg width="365" height="112" viewBox="0 0 365 112" fill="none" xmlns="http://www.w3.org/2000/svg">
<path d="M43.4595 0.182808C61.2982 0.526441 79.5651 7.07297 93.0026 18.5802C94.0143 19.2432 95.0261 19.9061 96.0686 20.5892C97.0804 20.2577 98.0922 19.9262 99.1346 19.5847C99.1346 18.9217 99.1346 18.2587 99.1346 17.5757C101.572 15.8579 103.994 14.2825 106.544 12.7414C107.287 12.2902 108.029 11.8389 108.794 11.374C114.876 7.75131 121.02 4.80005 127.751 2.50795C128.421 2.26322 129.092 2.01849 129.783 1.76634C136.644 -0.356371 144.144 0.335064 151.257 0.498926C150.92 1.4934 150.582 2.48786 150.235 3.51247C149.197 3.68339 148.159 3.85432 147.089 4.03042C134.707 6.1402 123.677 9.03997 112.704 15.2959C110.377 16.5712 110.377 16.5712 107.311 17.5757C107.311 18.2386 107.311 18.9016 107.311 19.5847C106.636 19.5847 105.962 19.5847 105.267 19.5847C105.267 20.2477 105.267 20.9107 105.267 21.5937C104.592 21.5937 103.918 21.5937 103.223 21.5937C103.223 22.2567 103.223 22.9197 103.223 23.6028C102.548 23.6028 101.874 23.6028 101.179 23.6028C101.179 24.2657 101.179 24.9287 101.179 25.6118C100.504 25.6118 99.8296 25.6118 99.1346 25.6118C99.1583 26.8458 99.182 28.0798 99.2065 29.3512C99.3541 40.902 98.9832 52.3841 98.2403 63.9089C98.1601 65.2051 98.0799 66.5014 97.9973 67.8369C97.4645 75.6284 96.5245 83.2318 95.0466 90.9052C94.372 90.9052 93.6975 90.9052 93.0026 90.9052C92.6677 86.9511 92.3524 82.9956 92.0444 79.0394C91.9481 77.8045 91.8518 76.5697 91.7525 75.2975C91.2188 67.9601 90.8662 60.6502 90.739 53.2948C90.7162 52.1102 90.7162 52.1102 90.693 50.9017C90.6209 47.0103 90.5719 43.1204 90.5556 39.2284C90.5336 37.7894 90.5109 36.3504 90.4875 34.9114C90.4791 33.649 90.4707 32.3867 90.462 31.0861C89.7294 26.2546 87.5596 23.1166 83.9043 19.8633C70.449 11.1566 54.773 7.43635 38.8362 6.52601C38.6966 7.79111 38.5569 9.05621 38.4131 10.3596C36.8935 23.7776 35.0995 37.1614 32.7673 50.4669C31.582 57.2312 30.5838 64.0139 29.6382 70.8149C30.5331 70.8825 30.5331 70.8825 31.4462 70.9515C34.2086 71.1668 36.9694 71.3988 39.7305 71.6311C41.1375 71.7369 41.1375 71.7369 42.5729 71.8449C51.0663 72.5798 59.1558 74.1952 66.5582 78.5371C67.3196 78.9761 68.0811 79.4151 68.8656 79.8673C69.4111 80.1949 69.9565 80.5225 70.5184 80.8601C70.5184 81.523 70.5184 82.186 70.5184 82.8691C72.542 83.8636 72.542 83.8636 74.6064 84.8781C74.6064 85.5411 74.6064 86.2041 74.6064 86.8871C75.281 86.8871 75.9555 86.8871 76.6505 86.8871C77.325 88.2131 77.9995 89.5391 78.6945 90.9052C75.1029 92.0819 73.4399 91.6578 69.7519 90.968C50.6985 87.9367 27.8246 90.3715 11.2421 100.95C16.1358 100.477 20.9436 99.893 25.7777 99.0041C38.4751 96.7036 50.9254 95.4668 63.8115 95.1116C64.5406 95.0903 65.2696 95.069 66.0207 95.0471C78.2649 94.7122 78.2649 94.7122 80.7385 95.9278C80.7385 96.5908 80.7385 97.2537 80.7385 97.9368C81.5606 98.2476 82.3826 98.5583 83.2296 98.8785C85.8485 99.9458 85.8485 99.9458 86.8705 100.95C92.2298 101.859 96.8766 102.377 102.201 100.95C103.228 99.9551 104.224 98.9272 105.195 97.8779C109.48 94.1505 113.235 94.373 118.766 94.6525C120.463 94.7865 120.463 94.7865 122.194 94.9233C123.329 94.9815 124.464 95.0398 125.633 95.0998C131.055 95.4252 135.974 95.8378 141.037 97.9368C141.037 98.5998 141.037 99.2628 141.037 99.9458C140.248 100.021 139.459 100.097 138.646 100.175C135.077 100.524 131.51 100.894 127.942 101.264C126.08 101.442 126.08 101.442 124.18 101.623C122.396 101.813 122.396 101.813 120.577 102.006C119.48 102.116 118.382 102.227 117.252 102.341C114.23 103.011 113.375 103.736 111.399 105.973C110.724 105.973 110.05 105.973 109.355 105.973C109.355 106.636 109.355 107.299 109.355 107.982C98.7254 111.579 90.7938 112.234 80.2914 107.354C79.4271 106.898 78.5629 106.443 77.6725 105.973C77.6725 105.31 77.6725 104.647 77.6725 103.964C54.613 104.612 32.5883 106.876 9.8433 110.568C6.56736 111.089 3.28756 111.557 0 112C0.414778 108.168 1.0211 104.771 2.36738 101.15C4.68894 94.4333 6.20103 87.5192 7.7928 80.6089C7.96492 79.8706 8.13704 79.1323 8.31437 78.3716C10.6212 68.4612 12.7477 58.5238 14.7353 48.5469C15.0425 47.0091 15.0425 47.0091 15.3559 45.4402C16.3666 40.367 17.362 35.2915 18.3367 30.2116C18.7036 28.3447 19.0707 26.4779 19.4381 24.6112C19.5975 23.7547 19.7569 22.8982 19.9212 22.0157C21.4634 14.2725 21.4634 14.2725 24.5281 11.5486C28.2968 11.2975 28.2968 11.2975 31.6822 11.5486C31.8179 10.8351 31.9536 10.1216 32.0934 9.38652C32.2739 8.46327 32.4544 7.54002 32.6403 6.58879C32.8182 5.66813 32.996 4.74747 33.1793 3.79891C34.3795 -1.23848 38.9185 0.187654 43.4595 0.182808ZM26.5722 16.5712C25.0163 18.1004 25.1664 19.669 24.8874 21.7938C24.7682 22.6701 24.649 23.5463 24.5262 24.4491C24.4003 25.3922 24.2745 26.3352 24.1449 27.3069C23.1198 34.6906 21.8692 41.9284 20.1846 49.1982C19.1143 54.135 18.319 59.1062 17.5086 64.0894C16.5252 70.0405 15.2702 75.884 13.849 81.7508C13.2298 85.1907 13.1924 88.4234 13.2861 91.9097C15.9662 91.3 18.248 90.5553 20.8234 89.524C26.9733 87.2191 33.4068 86.0684 39.8582 84.8781C40.6474 84.7305 41.4365 84.5829 42.2496 84.4308C49.9064 83.3041 57.7337 84.2765 65.4084 84.8781C58.8534 80.5829 51.4174 79.3353 43.6908 78.5999C42.5308 78.4639 42.5308 78.4639 41.3473 78.3252C34.3089 77.6116 27.466 78.1742 20.4401 78.851C21.5665 71.9187 22.6936 64.9866 23.821 58.0545C24.2038 55.7008 24.5864 53.3471 24.9688 50.9934C25.5215 47.592 26.0747 44.1907 26.6281 40.7894C26.7963 39.753 26.9646 38.7165 27.138 37.6487C28.2825 30.6179 29.4611 23.5932 30.6602 16.5712C29.3111 16.5712 27.9621 16.5712 26.5722 16.5712Z" fill="#F9A024"/>
<path d="M43.4595 0.182808C61.2982 0.526441 79.5651 7.07297 93.0026 18.5802C94.0143 19.2432 95.0261 19.9061 96.0686 20.5892C97.0804 20.2577 98.0921 19.9262 99.1346 19.5847C99.1346 18.9217 99.1346 18.2587 99.1346 17.5757C101.572 15.8579 103.994 14.2825 106.544 12.7414C107.287 12.2902 108.029 11.8389 108.794 11.374C114.876 7.75131 121.02 4.80005 127.751 2.50795C128.421 2.26322 129.092 2.01849 129.783 1.76634C136.644 -0.356371 144.144 0.335064 151.257 0.498926C150.92 1.4934 150.582 2.48786 150.235 3.51247C149.197 3.68339 148.159 3.85432 147.089 4.03042C134.707 6.1402 123.677 9.03997 112.704 15.2959C110.377 16.5712 110.377 16.5712 107.311 17.5757C107.311 18.2386 107.311 18.9016 107.311 19.5847C106.636 19.5847 105.962 19.5847 105.267 19.5847C105.267 20.2477 105.267 20.9107 105.267 21.5937C104.592 21.5937 103.918 21.5937 103.223 21.5937C103.223 22.2567 103.223 22.9197 103.223 23.6028C102.548 23.6028 101.874 23.6028 101.179 23.6028C101.179 24.2657 101.179 24.9287 101.179 25.6118C100.504 25.6118 99.8296 25.6118 99.1346 25.6118C99.1583 26.8458 99.182 28.0798 99.2065 29.3512C99.3541 40.902 98.9832 52.3841 98.2403 63.9089C98.1601 65.2051 98.0799 66.5014 97.9973 67.8369C97.4645 75.6284 96.5245 83.2318 95.0466 90.9052C94.372 90.9052 93.6975 90.9052 93.0026 90.9052C92.6677 86.9511 92.3524 82.9956 92.0444 79.0394C91.9481 77.8045 91.8518 76.5697 91.7525 75.2975C91.2188 67.9601 90.8662 60.6502 90.739 53.2948C90.7162 52.1102 90.7162 52.1102 90.693 50.9017C90.6209 47.0103 90.5719 43.1204 90.5556 39.2284C90.5336 37.7894 90.5109 36.3504 90.4875 34.9114C90.4791 33.649 90.4707 32.3867 90.462 31.0861C89.7294 26.2546 87.5596 23.1166 83.9043 19.8633C70.449 11.1566 54.773 7.43635 38.8362 6.52601C38.6887 7.83125 38.5411 9.13649 38.3891 10.4813C37.8568 15.1899 37.3245 19.8986 36.7922 24.6073C36.455 24.6073 36.1177 24.6073 35.7702 24.6073C35.7702 20.6294 35.7702 16.6515 35.7702 12.5531C32.5339 14.3947 32.5339 14.3947 30.6602 17.5757C29.3111 17.5757 27.9621 17.5757 26.5722 17.5757C26.4953 18.141 26.4185 18.7064 26.3394 19.2889C24.9588 29.3548 23.4923 39.3143 21.2026 49.2257C20.3288 53.246 19.6367 57.2771 18.971 61.3348C17.2911 71.5669 15.3004 81.7368 13.2861 91.9097C13.8022 91.6408 14.3183 91.3719 14.85 91.0948C19.1209 88.9234 23.1531 87.2009 27.8497 86.071C28.8667 85.8159 29.8838 85.5608 30.9317 85.298C33.6591 84.8882 35.2402 84.9971 37.8142 85.8826C34.1 88.219 30.8943 88.0551 26.5722 87.8917C26.5722 88.5546 26.5722 89.2176 26.5722 89.9007C25.6236 90.1907 24.6751 90.4808 23.6978 90.7796C20.34 91.7967 20.34 91.7967 17.3741 93.9187C14.6275 94.0443 14.6275 94.0443 12.2641 93.9187C12.2365 91.7842 12.2167 89.6496 12.2002 87.515C12.1883 86.3263 12.1765 85.1376 12.1643 83.9128C12.2641 80.8601 12.2641 80.8601 13.2861 78.851C13.5197 76.8044 13.7053 74.7522 13.861 72.6984C13.9466 71.5977 14.0322 70.4971 14.1204 69.3631C14.1824 68.5162 14.2443 67.6694 14.3081 66.7969C13.6336 66.7969 12.959 66.7969 12.2641 66.7969C12.3273 68.0399 12.3905 69.283 12.4557 70.5638C12.4722 73.6096 12.3729 74.6547 10.7311 77.3443C10.2252 77.8415 9.71927 78.3387 9.19805 78.851C9.90021 71.5266 11.1939 64.4121 12.6713 57.203C12.9121 56.0213 13.1529 54.8396 13.401 53.6221C13.9091 51.1389 14.4194 48.6561 14.9319 46.1737C15.714 42.3712 16.4803 38.5659 17.2463 34.7603C17.7431 32.3424 18.2407 29.9246 18.7394 27.507C18.9663 26.3696 19.1932 25.2322 19.4269 24.0603C19.6485 23.0038 19.87 21.9473 20.0983 20.8587C20.2881 19.9313 20.4779 19.0038 20.6735 18.0483C21.5486 15.2944 22.4769 13.6128 24.5281 11.5486C28.2968 11.2975 28.2968 11.2975 31.6822 11.5486C31.8179 10.8351 31.9536 10.1216 32.0934 9.38652C32.2739 8.46327 32.4544 7.54002 32.6403 6.58879C32.9071 5.2078 32.9071 5.2078 33.1793 3.79891C34.3795 -1.23848 38.9185 0.187654 43.4595 0.182808Z" fill="#F4A12E"/>
<path d="M119.575 22.5982C124.359 22.5735 129.144 22.5552 133.928 22.543C135.557 22.538 137.186 22.5311 138.814 22.5224C141.151 22.5103 143.487 22.5046 145.824 22.5001C146.556 22.4949 147.288 22.4898 148.043 22.4844C149.796 22.4842 151.549 22.536 153.301 22.5982C154.323 23.6027 154.323 23.6027 154.323 31.6389C146.229 31.6389 138.134 31.6389 129.795 31.6389C129.795 35.6167 129.795 39.5946 129.795 43.693C136.877 43.693 143.96 43.693 151.257 43.693C151.257 46.6764 151.257 49.6598 151.257 52.7337C144.174 52.7337 137.092 52.7337 129.795 52.7337C129.795 56.38 129.795 60.0264 129.795 63.7833C132.322 63.7658 132.322 63.7658 134.901 63.748C137.095 63.7386 139.29 63.7294 141.484 63.7205C142.597 63.7121 143.709 63.7037 144.855 63.695C145.913 63.6918 146.97 63.6885 148.059 63.6852C149.039 63.68 150.018 63.6747 151.027 63.6693C153.301 63.7833 153.301 63.7833 154.323 64.7878C154.396 66.314 154.409 67.8432 154.387 69.3709C154.378 70.2009 154.368 71.031 154.359 71.8861C154.347 72.5271 154.335 73.1681 154.323 73.8285C149.393 73.8532 144.463 73.8715 139.533 73.8836C137.855 73.8887 136.176 73.8956 134.498 73.9042C132.09 73.9164 129.683 73.9221 127.276 73.9265C126.521 73.9317 125.766 73.9369 124.988 73.9423C123.183 73.9425 121.379 73.8907 119.575 73.8285C117.958 72.2392 118.423 70.6279 118.42 68.4238C118.417 67.4884 118.414 66.553 118.411 65.5892C118.413 64.5711 118.415 63.553 118.417 62.5041C118.416 61.4648 118.415 60.4254 118.414 59.3546C118.413 57.1505 118.415 54.9465 118.419 52.7425C118.425 49.365 118.42 45.9876 118.413 42.61C118.414 40.4728 118.415 38.3356 118.417 36.1984C118.415 35.1844 118.413 34.1704 118.411 33.1257C118.414 32.1839 118.417 31.2422 118.42 30.2719C118.421 29.4429 118.422 28.6139 118.423 27.7598C118.553 25.6118 118.553 25.6118 119.575 22.5982Z" fill="#252525"/>
<path d="M189.901 21.4603C190.639 21.4629 191.377 21.4655 192.137 21.4682C192.875 21.4656 193.613 21.463 194.373 21.4603C196.225 21.5937 196.225 21.5937 197.247 22.5983C197.343 24.2016 197.367 25.809 197.363 27.4151C197.363 28.4407 197.363 29.4662 197.363 30.5229C197.358 31.6383 197.352 32.7537 197.347 33.903C197.346 35.0386 197.344 36.1743 197.343 37.3444C197.337 40.9884 197.324 44.6322 197.311 48.2761C197.306 50.7397 197.301 53.2032 197.297 55.6668C197.286 61.7207 197.269 67.7746 197.247 73.8285C195.586 73.8556 193.926 73.8751 192.265 73.8913C191.34 73.9029 190.415 73.9146 189.462 73.9266C187.027 73.8285 187.027 73.8285 184.983 72.824C184.369 73.1283 183.755 73.4326 183.123 73.7461C179.167 75.676 174.989 75.2563 170.675 74.833C165.371 73.0624 162.679 70.2239 159.433 65.7924C156.307 59.3269 156.545 52.6972 158.475 45.8904C161.236 41.4258 164.871 38.0069 169.653 35.6569C171.652 35.5338 173.655 35.4806 175.657 35.4686C176.73 35.4543 177.802 35.4401 178.907 35.4254C181.851 35.6519 183.514 36.1696 186.005 37.666C186.098 36.0519 186.098 36.0519 186.193 34.4052C186.279 33.0018 186.365 31.5983 186.452 30.1949C186.492 29.4846 186.533 28.7744 186.574 28.0426C186.977 21.6709 186.977 21.6709 189.901 21.4603ZM169.908 46.8322C167.823 49.9064 167.488 53.1447 167.609 56.7517C168.675 60.8928 170.04 63.3674 173.741 65.7924C177.966 66.2538 180.168 66.2273 183.833 64.0345C186.098 61.6774 186.752 60.9097 187.027 57.7562C187.132 56.6375 187.238 55.5187 187.346 54.366C186.959 49.9527 185.953 47.9721 182.939 44.6976C177.731 42.9548 174.405 43.9908 169.908 46.8322Z" fill="#202020"/>
<path d="M274.281 24.2933C277.265 26.8774 279.187 29.1885 281.052 32.6434C281.052 34.3008 281.052 35.9583 281.052 37.6659C277.679 37.6659 274.306 37.6659 270.832 37.6659C270.494 36.34 270.157 35.014 269.81 33.6479C266.864 32.6828 265.008 32.5371 261.953 32.5806C261.127 32.5896 260.301 32.5987 259.45 32.608C258.821 32.6197 258.193 32.6314 257.546 32.6434C257.033 35.4869 257.033 35.4869 257.546 38.6704C261.03 41.8252 264.185 42.8915 268.724 44.0697C273.872 45.4608 277.576 47.7178 281.052 51.7291C282.822 56.9487 282.721 61.9085 280.924 67.1108C278.016 71.2075 274.588 73.2673 269.81 74.833C262.018 75.5988 256.211 74.5339 249.369 70.8149C249.369 70.1519 249.369 69.4889 249.369 68.8059C248.695 68.8059 248.02 68.8059 247.325 68.8059C244.668 64.888 245.127 61.2978 245.281 56.7517C248.317 56.7517 251.352 56.7517 254.479 56.7517C255.238 58.4609 255.238 58.4609 256.012 60.2047C257.338 62.5162 257.994 63.5734 260.552 64.5092C263.964 64.9478 266.541 64.8543 269.81 63.7833C270.85 61.5019 270.96 60.2291 270.293 57.8151C268.02 54.6922 264.801 53.8575 261.25 52.6081C248.945 48.09 248.945 48.09 246.064 42.6846C244.648 39.0566 244.779 36.5297 245.281 32.6434C248.072 27.1587 251.916 23.8708 257.801 21.7821C263.697 21.3869 268.948 21.6728 274.281 24.2933Z" fill="#2A2A2A"/>
<path d="M357.191 37.1637C364.033 43.8883 364.856 47.5107 364.856 57.7562C356.425 57.7562 347.993 57.7562 339.306 57.7562C340.88 62.5809 340.88 62.5809 343.394 64.7878C347.525 65.1616 347.525 65.1616 351.57 64.7878C352.052 64.288 352.534 63.7882 353.031 63.2732C354.636 61.7743 354.636 61.7743 357.171 61.48C358.084 61.5149 358.997 61.5499 359.938 61.5859C361.319 61.6267 361.319 61.6267 362.728 61.6683C363.782 61.7208 363.782 61.7208 364.856 61.7743C363.333 67.6252 360.758 71.0217 355.467 74.1424C348.637 75.7833 342.142 75.6902 335.993 72.1176C331.372 68.7673 329.519 65.8981 328.371 60.295C327.587 53.2251 327.343 47.419 331.577 41.425C338.174 34.1956 348.284 33.4118 357.191 37.1637ZM341.35 45.702C339.976 47.7285 339.976 47.7285 339.306 49.7201C340.468 51.0916 340.468 51.0916 343.558 50.8227C344.874 50.8111 346.19 50.7994 347.546 50.7874C348.865 50.7783 350.183 50.7693 351.542 50.7599C352.563 50.7483 353.584 50.7366 354.636 50.7246C353.31 46.6053 353.31 46.6053 349.718 44.2581C346.024 43.6174 344.531 43.7917 341.35 45.702Z" fill="#252525"/>
<path d="M213.599 36.6614C213.62 37.3046 213.64 37.9477 213.661 38.6104C213.758 41.5397 213.87 44.4683 213.983 47.3972C214.014 48.4091 214.046 49.4211 214.078 50.4637C214.118 51.4445 214.157 52.4254 214.198 53.436C214.23 54.3356 214.262 55.2351 214.295 56.1619C214.648 58.9776 215.487 61.2044 216.665 63.7833C220.044 64.641 220.044 64.641 223.819 64.7878C226.625 62.7393 227.757 61.4914 228.465 58.1005C228.487 57.1116 228.508 56.1226 228.53 55.1037C228.58 53.4915 228.58 53.4915 228.63 51.8468C228.644 50.7307 228.659 49.6145 228.674 48.4645C228.704 47.3327 228.734 46.201 228.766 45.035C228.838 42.2437 228.892 39.4533 228.929 36.6614C232.302 36.6614 235.675 36.6614 239.149 36.6614C239.149 48.9265 239.149 61.1917 239.149 73.8284C229.951 73.8284 229.951 73.8284 226.885 72.8239C225.512 73.4715 224.15 74.1434 222.797 74.833C217.123 75.6138 212.221 75.1567 207.467 71.8194C204.678 67.349 204.032 64.0372 204.102 58.8314C204.112 57.5365 204.122 56.2416 204.132 54.9075C204.157 53.555 204.183 52.2026 204.21 50.8502C204.225 49.4742 204.239 48.0982 204.252 46.7223C204.288 43.3682 204.338 40.015 204.401 36.6614C211.3 35.5313 211.3 35.5313 213.599 36.6614Z" fill="#202020"/>
<path d="M316.822 27.6208C316.822 30.2727 316.822 32.9246 316.822 35.6569C319.857 35.9884 322.893 36.3199 326.02 36.6614C326.02 39.3134 326.02 41.9653 326.02 44.6976C321.973 45.1948 321.973 45.1948 317.844 45.7021C317.507 51.6689 317.169 57.6357 316.822 63.7833C319.857 64.1148 322.893 64.4463 326.02 64.7878C326.12 71.7527 326.12 71.7527 326.02 73.8285C324.998 74.833 324.998 74.833 321.229 75.0213C317.393 74.9874 314.273 74.2325 310.69 72.8239C310.69 72.161 310.69 71.498 310.69 70.8149C310.015 70.8149 309.341 70.8149 308.646 70.8149C306.27 65.2798 306.363 60.2563 306.474 54.366C306.483 53.435 306.492 52.504 306.502 51.5447C306.526 49.2621 306.559 46.9799 306.602 44.6976C305.78 44.7183 304.958 44.739 304.111 44.7603C301.492 44.6976 301.492 44.6976 300.47 43.693C300.428 41.3495 300.426 39.0049 300.47 36.6614C303.536 35.6569 303.536 35.6569 306.602 36.6614C306.602 33.678 306.602 30.6946 306.602 27.6208C310.379 26.6663 313.045 26.6663 316.822 27.6208Z" fill="#181818"/>
<path d="M33.7262 1.50342C34.0635 1.50342 34.4007 1.50342 34.7482 1.50342C35.0855 4.48682 35.4227 7.47023 35.7702 10.544C36.1075 8.8866 36.4447 7.22915 36.7922 5.52147C39.4903 5.52147 42.1884 5.52147 44.9683 5.52147C44.9683 5.85296 44.9683 6.18445 44.9683 6.52599C42.9447 6.52599 40.9211 6.52599 38.8362 6.52599C38.6887 7.83123 38.5411 9.13647 38.3891 10.4813C37.8568 15.1899 37.3245 19.8986 36.7922 24.6072C36.455 24.6072 36.1177 24.6072 35.7702 24.6072C35.7702 20.6294 35.7702 16.6515 35.7702 12.5531C32.5339 14.3947 32.5339 14.3947 30.6602 17.5756C29.3111 17.5756 27.9621 17.5756 26.5722 17.5756C26.4953 18.141 26.4185 18.7064 26.3394 19.2889C24.9588 29.3547 23.4923 39.3142 21.2026 49.2257C20.3288 53.246 19.6367 57.2771 18.971 61.3348C17.2911 71.5669 15.3004 81.7368 13.2861 91.9097C13.8022 91.6408 14.3183 91.3718 14.85 91.0947C19.1209 88.9234 23.1531 87.2008 27.8497 86.0709C28.8667 85.8159 29.8838 85.5608 30.9317 85.2979C33.6591 84.8882 35.2402 84.9971 37.8142 85.8826C34.1 88.219 30.8943 88.055 26.5722 87.8916C26.5722 88.5546 26.5722 89.2176 26.5722 89.9007C25.6236 90.1907 24.6751 90.4808 23.6978 90.7796C20.34 91.7967 20.34 91.7967 17.3741 93.9187C14.6275 94.0443 14.6275 94.0443 12.2641 93.9187C12.2365 91.7842 12.2167 89.6496 12.2002 87.5149C12.1883 86.3262 12.1765 85.1375 12.1643 83.9128C12.2641 80.86 12.2641 80.86 13.2861 78.851C13.5197 76.8043 13.7053 74.7522 13.861 72.6984C13.9466 71.5977 14.0322 70.4971 14.1204 69.3631C14.1824 68.5162 14.2443 67.6693 14.3081 66.7968C13.6336 66.7968 12.959 66.7968 12.2641 66.7968C12.3273 68.0399 12.3905 69.283 12.4557 70.5638C12.4722 73.6096 12.3729 74.6546 10.7311 77.3442C10.2252 77.8415 9.71927 78.3387 9.19805 78.851C9.90021 71.5265 11.1939 64.4121 12.6713 57.2029C12.9121 56.0213 13.1529 54.8396 13.401 53.6221C13.9091 51.1388 14.4194 48.656 14.9319 46.1736C15.714 42.3712 16.4803 38.5659 17.2464 34.7603C17.7431 32.3423 18.2407 29.9246 18.7394 27.507C18.9663 26.3696 19.1932 25.2322 19.4269 24.0603C19.6485 23.0038 19.87 21.9472 20.0983 20.8587C20.2881 19.9313 20.4779 19.0038 20.6735 18.0483C21.5486 15.2943 22.4769 13.6128 24.5281 11.5486C28.2968 11.2974 28.2968 11.2974 31.6822 11.5486C32.3567 8.23366 33.0312 4.91877 33.7262 1.50342Z" fill="#EEB159"/>
<path d="M167.609 36.6614C168.284 36.9929 168.958 37.3244 169.653 37.6659C169.316 38.6604 168.978 39.6549 168.631 40.6795C169.643 40.348 170.655 40.0165 171.697 39.675C173.383 41.3324 175.07 42.9898 176.807 44.6975C175.606 45.1326 175.606 45.1326 174.38 45.5765C171.598 46.555 171.598 46.555 169.653 48.7156C168.268 54.8951 168.589 58.2393 171.697 63.7833C174.155 64.9914 175.734 64.889 178.468 64.8506C179.303 64.8415 180.138 64.8325 180.999 64.8231C181.639 64.8115 182.279 64.7998 182.939 64.7878C182.602 65.4508 182.265 66.1138 181.917 66.7968C179.544 67.206 177.158 67.5446 174.763 67.8013C174.763 69.4588 174.763 71.1162 174.763 72.8239C176.787 73.1554 178.81 73.4869 180.895 73.8284C180.895 74.1599 180.895 74.4914 180.895 74.8329C169.787 75.4155 169.787 75.4155 164.543 71.8194C159.596 66.7363 157.1 62.4357 157.07 55.3705C157.21 49.6542 157.975 45.1262 162.251 40.9227C163.994 39.4323 165.76 38.0207 167.609 36.6614Z" fill="#252525"/>
<path d="M80.7385 95.9277C80.7385 96.5907 80.7385 97.2537 80.7385 97.9368C81.5606 98.2475 82.3826 98.5583 83.2296 98.8785C85.8485 99.9458 85.8485 99.9458 86.8705 100.95C92.2298 101.858 96.8766 102.377 102.201 100.95C103.228 99.9551 104.224 98.9272 105.195 97.8779C109.48 94.1504 113.235 94.373 118.766 94.6525C119.897 94.7418 121.028 94.8312 122.194 94.9232C123.329 94.9815 124.464 95.0397 125.633 95.0998C131.055 95.4251 135.974 95.8377 141.037 97.9368C141.037 98.5997 141.037 99.2627 141.037 99.9458C139.854 100.059 139.854 100.059 138.646 100.175C135.077 100.524 131.51 100.894 127.942 101.264C126.701 101.383 125.459 101.501 124.18 101.623C122.991 101.749 121.802 101.876 120.577 102.006C119.48 102.116 118.382 102.227 117.252 102.341C114.23 103.011 113.375 103.736 111.399 105.973C110.724 105.973 110.05 105.973 109.355 105.973C109.355 106.636 109.355 107.299 109.355 107.982C100.184 111.085 93.2342 112.258 83.8045 108.986C82.7927 108.323 81.7809 107.66 80.7385 106.977C83.0993 106.314 85.4602 105.651 87.8925 104.968C87.5553 105.963 87.218 106.957 86.8705 107.982C92.9412 107.982 99.012 107.982 105.267 107.982C105.604 105.993 105.941 104.004 106.289 101.955C105.277 102.618 104.265 103.281 103.223 103.964C100.495 104.161 97.8987 104.244 95.1743 104.215C94.4511 104.223 93.7278 104.231 92.9826 104.239C88.7903 104.223 85.5294 103.785 81.7605 101.955C81.7605 101.292 81.7605 100.629 81.7605 99.9458C81.086 99.9458 80.4114 99.9458 79.7165 99.9458C79.2106 98.9513 79.2106 98.9513 78.6945 97.9368C74.6981 97.8863 70.702 97.8503 66.7054 97.8264C64.6934 97.8116 62.6815 97.786 60.6696 97.7602C53.3906 97.7239 46.5475 98.1025 39.4011 99.4985C35.7504 100.124 32.3119 100.085 28.6162 99.9458C37.2648 94.2787 51.29 95.52 61.3842 95.2371C62.6905 95.1899 63.9967 95.1426 65.3425 95.0939C75.7938 94.7653 75.7938 94.7653 80.7385 95.9277Z" fill="#F5AA3C"/>
<path d="M228.929 36.6614C232.302 36.6614 235.675 36.6614 239.149 36.6614C239.149 48.9265 239.149 61.1916 239.149 73.8284C238.138 73.4969 237.126 73.1654 236.083 72.8239C234.383 72.4741 232.68 72.1368 230.973 71.8194C230.973 70.162 230.973 68.5045 230.973 66.7968C230.004 66.9833 229.034 67.1698 228.035 67.3619C224.841 67.8013 224.841 67.8013 222.797 66.7968C223.623 66.0587 224.449 65.3207 225.3 64.5602C229.305 59.8368 228.706 54.213 228.738 48.3389C228.763 47.2162 228.789 46.0936 228.816 44.9369C228.876 42.178 228.913 39.4208 228.929 36.6614Z" fill="#282828"/>
<path d="M329.086 55.7472C329.486 56.2652 329.887 56.7831 330.3 57.3168C331.217 58.0315 331.217 58.0315 332.152 58.7608C334.768 58.4307 334.768 58.4307 337.262 57.7562C340.078 59.1404 340.827 61.143 342.372 63.7833C344.286 65.6644 346.969 65.025 349.518 65.1174C351.68 64.9783 351.68 64.9783 353.035 63.2771C354.636 61.7743 354.636 61.7743 357.171 61.48C358.541 61.5324 358.541 61.5324 359.938 61.5859C361.319 61.6267 361.319 61.6267 362.728 61.6683C363.431 61.7033 364.133 61.7383 364.856 61.7743C363.333 67.6252 360.758 71.0217 355.467 74.1424C348.623 75.7866 342.181 75.6591 335.996 72.1451C332.859 69.8272 330.634 67.3474 329.086 63.7833C328.698 60.9565 328.83 58.6174 329.086 55.7472Z" fill="#232323"/>
<path d="M288.206 36.6614C291.241 36.6614 294.276 36.6614 297.404 36.6614C297.404 48.9265 297.404 61.1916 297.404 73.8284C294.368 73.8284 291.333 73.8284 288.206 73.8284C288.206 61.5633 288.206 49.2982 288.206 36.6614Z" fill="#292828"/>
<path d="M362.812 43.693C364.76 46.9193 365.084 49.2568 364.984 52.9847C364.965 53.8808 364.947 54.7769 364.928 55.7001C364.904 56.3786 364.881 57.0571 364.856 57.7562C360.4 57.8999 355.944 58.0429 351.489 58.1854C349.973 58.2339 348.457 58.2826 346.941 58.3315C344.762 58.4018 342.583 58.4714 340.404 58.541C339.093 58.5831 337.781 58.6251 336.43 58.6685C334.324 58.7282 332.216 58.7607 330.108 58.7607C329.738 57.1302 329.378 55.4974 329.022 53.8637C328.821 52.9547 328.619 52.0457 328.411 51.1091C328.064 48.7156 328.064 48.7156 329.086 46.7065C332.152 47.7111 332.152 47.7111 333.174 49.7201C334.523 49.7201 335.872 49.7201 337.262 49.7201C337.262 50.3831 337.262 51.046 337.262 51.7291C337.937 51.7291 338.611 51.7291 339.306 51.7291C339.643 51.0661 339.981 50.4031 340.328 49.7201C340.328 50.3831 340.328 51.046 340.328 51.7291C345.387 51.7291 350.446 51.7291 355.658 51.7291C355.658 50.0717 355.658 48.4142 355.658 46.7065C358.094 44.8795 359.703 43.693 362.812 43.693Z" fill="#1B1B1B"/>
<path d="M151.257 0.498911C150.92 1.49338 150.582 2.48785 150.235 3.51245C148.678 3.76884 148.678 3.76884 147.089 4.03041C134.707 6.14018 123.677 9.03996 112.704 15.2959C110.377 16.5711 110.377 16.5711 107.311 17.5757C107.311 18.2386 107.311 18.9016 107.311 19.5847C106.636 19.5847 105.962 19.5847 105.267 19.5847C105.267 20.2477 105.267 20.9106 105.267 21.5937C104.592 21.5937 103.918 21.5937 103.223 21.5937C103.223 22.2567 103.223 22.9197 103.223 23.6027C102.548 23.6027 101.874 23.6027 101.179 23.6027C100.841 24.2657 100.504 24.9287 100.157 25.6118C100.157 23.9543 100.157 22.2969 100.157 20.5892C99.1448 21.2522 98.133 21.9152 97.0906 22.5982C94.3439 22.7238 94.3439 22.7238 91.9805 22.5982C91.6433 20.9408 91.306 19.2833 90.9585 17.5757C91.7384 18.0936 92.5184 18.6116 93.3219 19.1452C94.2283 19.6217 95.1347 20.0982 96.0686 20.5892C97.0803 20.2577 98.0921 19.9262 99.1346 19.5847C99.1346 18.9217 99.1346 18.2587 99.1346 17.5757C101.572 15.8579 103.994 14.2825 106.544 12.7414C107.286 12.2902 108.029 11.8389 108.794 11.374C114.876 7.7513 121.02 4.80003 127.751 2.50794C128.421 2.26321 129.092 2.01847 129.783 1.76633C136.644 -0.356386 144.144 0.335049 151.257 0.498911Z" fill="#EEAE58"/>
<path d="M251.414 24.6073C253.585 24.984 253.585 24.984 255.502 25.6118C255.038 26.4198 254.574 27.2278 254.096 28.0603C253.339 32.3016 253.915 32.9527 256.268 36.4103C257.956 38.6891 259.605 40.6946 261.634 42.6885C261.974 48.0459 261.974 48.0459 260.612 50.7246C252.12 49.7615 252.12 49.7615 249.37 47.7111C245.54 42.4832 244.453 39.0568 245.282 32.6434C247.066 29.4857 248.826 27.1501 251.414 24.6073Z" fill="#1D1D1D"/>
<path d="M51.1003 73.8285C58.7461 74.112 64.0294 77.0263 70.5184 80.8601C70.5184 81.523 70.5184 82.186 70.5184 82.8691C71.8674 83.5321 73.2165 84.195 74.6064 84.8781C74.6064 85.5411 74.6064 86.2041 74.6064 86.8871C75.2809 86.8871 75.9555 86.8871 76.6504 86.8871C77.325 88.2131 77.9995 89.5391 78.6944 90.9052C74.9354 92.1368 72.6826 91.6113 68.7938 90.968C67.5883 90.7725 66.3829 90.5769 65.1409 90.3755C64.2174 90.2188 63.2939 90.0621 62.3424 89.9007C62.3424 89.5692 62.3424 89.2377 62.3424 88.8962C63.6914 88.5647 65.0404 88.2332 66.4304 87.8917C63.4515 86.9157 61.0383 86.6033 57.923 86.3496C56.8723 86.2622 55.8217 86.1748 54.7392 86.0847C53.6437 85.9973 52.5483 85.9099 51.4197 85.8198C50.3124 85.7286 49.2051 85.6373 48.0642 85.5432C45.3291 85.3182 42.5938 85.0966 39.8582 84.8781C39.8582 84.5466 39.8582 84.2151 39.8582 83.8736C47.5204 82.7248 54.6448 83.1135 62.3424 83.8736C56.5231 81.7684 51.1494 80.4078 44.9682 79.8555C44.9682 79.5241 44.9682 79.1926 44.9682 78.851C49.5213 78.3538 49.5213 78.3538 54.1663 77.8465C53.1545 76.5206 52.1427 75.1946 51.1003 73.8285Z" fill="#F0AC4D"/>
<path d="M33.7262 12.5531C34.4007 12.5531 35.0752 12.5531 35.7702 12.5531C36.1587 25.975 35.2553 38.5353 32.7042 51.7291C31.3551 51.7291 30.0061 51.7291 28.6162 51.7291C28.2789 52.3921 27.9416 53.0551 27.5942 53.7382C25.9657 52.1375 26.3589 50.4918 26.3167 48.2761C26.3436 44.5312 26.8043 41.5146 28.0413 37.9799C29.9863 32.3781 30.0968 26.8669 30.245 21.0091C30.6834 17.3834 31.4591 15.4203 33.7262 12.5531Z" fill="#F2A53A"/>
<path d="M33.7262 1.50342C34.0635 1.50342 34.4007 1.50342 34.7482 1.50342C35.0855 4.48683 35.4227 7.47023 35.7702 10.544C36.1075 8.8866 36.4447 7.22915 36.7922 5.52147C39.4903 5.52147 42.1884 5.52147 44.9683 5.52147C44.9683 5.85296 44.9683 6.18445 44.9683 6.52599C42.9447 6.52599 40.9211 6.52599 38.8362 6.52599C38.6887 7.83123 38.5411 9.13647 38.3891 10.4813C37.8568 15.1899 37.3245 19.8986 36.7922 24.6072C36.455 24.6072 36.1177 24.6072 35.7702 24.6072C35.7702 20.6294 35.7702 16.6515 35.7702 12.5531C32.5339 14.3947 32.5339 14.3947 30.6602 17.5756C29.3111 17.5756 27.9621 17.5756 26.5722 17.5756C26.4953 18.141 26.4185 18.7064 26.3394 19.2889C24.7948 30.5501 23.1081 41.6679 20.4401 52.7336C20.1029 52.7336 19.7656 52.7336 19.4181 52.7336C19.5622 50.2848 19.712 47.8365 19.8652 45.3881C19.9054 44.6947 19.9456 44.0013 19.987 43.2869C20.1839 40.2057 20.4639 37.5959 21.4621 34.6524C21.5025 32.3089 21.5071 29.9642 21.4621 27.6208C20.7876 27.9523 20.1131 28.2838 19.4181 28.6253C20.2814 15.7227 20.2814 15.7227 24.5282 11.5486C26.9125 11.5074 29.2979 11.506 31.6822 11.5486C32.3567 8.23366 33.0312 4.91877 33.7262 1.50342Z" fill="#EEB259"/>
<path d="M315.8 45.702C316.137 45.702 316.474 45.702 316.822 45.702C316.822 51.6688 316.822 57.6357 316.822 63.7833C319.857 64.1148 322.893 64.4463 326.02 64.7878C326.12 71.7527 326.12 71.7527 326.02 73.8284C324.998 74.8329 324.998 74.8329 321.229 75.0213C317.393 74.9873 314.273 74.2325 310.69 72.8239C310.69 72.1609 310.69 71.498 310.69 70.8149C310.015 70.8149 309.341 70.8149 308.646 70.8149C308.309 69.1574 307.971 67.5 307.624 65.7923C308.298 65.7923 308.973 65.7923 309.668 65.7923C310.005 64.4664 310.342 63.1404 310.69 61.7743C312.039 61.4428 313.388 61.1113 314.778 60.7697C315.115 55.7974 315.452 50.825 315.8 45.702Z" fill="#1E1E1E"/>
<path d="M68.4744 86.8872C69.4862 87.2186 70.498 87.5501 71.5404 87.8917C71.5404 88.2232 71.5404 88.5546 71.5404 88.8962C70.8776 88.9108 70.2149 88.9255 69.5321 88.9406C57.7744 89.2301 46.3578 89.5328 34.8719 92.1922C31.4395 92.9692 28.0191 93.4688 24.5281 93.9188C23.5163 92.5928 22.5045 91.2668 21.4621 89.9007C23.1484 89.9007 24.8347 89.9007 26.5721 89.9007C26.5721 89.2377 26.5721 88.5747 26.5721 87.8917C27.5325 87.6916 27.5325 87.6916 28.5123 87.4875C29.3476 87.3101 30.1828 87.1327 31.0434 86.9499C32.2884 86.6877 32.2884 86.6877 33.5585 86.4202C44.3935 83.7867 57.4652 83.8053 68.4744 86.8872Z" fill="#F59C21"/>
<path d="M289.228 37.666C291.453 42.0412 291.435 44.0497 291.272 48.8412C291.101 52.509 291.101 52.509 291.272 55.7472C291.946 56.4102 292.621 57.0732 293.316 57.7563C293.99 57.4248 294.665 57.0933 295.36 56.7517C295.776 54.4197 296.121 52.0738 296.382 49.7201C296.719 49.7201 297.056 49.7201 297.404 49.7201C297.404 57.6759 297.404 65.6316 297.404 73.8285C294.368 73.8285 291.333 73.8285 288.206 73.8285C288.543 61.8949 288.88 49.9612 289.228 37.666Z" fill="#0F0E0F"/>
<path d="M29.6382 17.5757C29.9754 17.5757 30.3127 17.5757 30.6602 17.5757C30.9546 25.6147 31.0632 32.6642 28.2768 40.3146C27.0992 44.4098 27.3477 48.5178 27.5941 52.7337C29.1118 52.2364 29.1118 52.2364 30.6602 51.7291C30.6602 49.0772 30.6602 46.4253 30.6602 43.693C30.9974 43.693 31.3347 43.693 31.6822 43.693C31.965 52.9908 31.2033 61.6537 29.6382 70.8149C31.3245 71.1464 33.0108 71.4779 34.7482 71.8194C34.7482 72.1509 34.7482 72.4824 34.7482 72.8239C32.3873 72.8239 30.0265 72.8239 27.5941 72.8239C27.9314 68.1831 28.2687 63.5422 28.6161 58.7607C25.3855 61.9361 25.1535 62.333 24.8475 66.4829C24.7467 67.7008 24.7467 67.7008 24.6439 68.9432C24.6057 69.5609 24.5675 70.1785 24.5281 70.8149C23.8536 70.8149 23.1791 70.8149 22.4841 70.8149C22.9879 52.8142 26.3236 35.2487 29.6382 17.5757Z" fill="#F1A945"/>
<path d="M50.871 101.841C52.1073 101.846 53.3437 101.851 54.6174 101.857C55.9513 101.86 57.2852 101.863 58.6596 101.867C60.0788 101.875 61.498 101.883 62.9173 101.892C64.3405 101.897 65.7637 101.902 67.1869 101.906C70.6821 101.918 74.1773 101.934 77.6725 101.955C77.6725 102.618 77.6725 103.281 77.6725 103.964C76.9639 103.984 76.2552 104.004 75.5252 104.024C53.1989 104.681 31.8663 106.993 9.8433 110.568C6.56736 111.089 3.28756 111.557 0 112C0.337262 109.68 0.674524 107.359 1.02201 104.968C1.35927 106.294 1.69653 107.62 2.04401 108.986C2.71854 108.841 3.39306 108.696 4.08802 108.547C6.56929 108.09 8.99288 107.759 11.4976 107.48C15.1132 107.394 15.1132 107.394 16.3521 105.973C18.9383 105.899 21.4959 105.88 24.081 105.91C24.8076 105.915 25.5341 105.919 26.2827 105.924C28.0826 105.936 29.8824 105.954 31.6822 105.973C31.6822 105.31 31.6822 104.647 31.6822 103.964C32.777 103.903 33.8718 103.842 34.9997 103.779C36.4276 103.695 37.8555 103.61 39.2834 103.524C40.3673 103.465 40.3673 103.465 41.4731 103.405C44.99 103.19 47.6014 101.972 50.871 101.841Z" fill="#EEB35A"/>
<path d="M98.1126 27.6208C98.4498 27.6208 98.7871 27.6208 99.1346 27.6208C99.3978 39.7092 99.0142 51.7203 98.2403 63.7833C98.1601 65.0873 98.0799 66.3913 97.9973 67.7349C97.4665 75.5616 96.5342 83.1978 95.0465 90.9052C94.372 90.9052 93.6975 90.9052 93.0025 90.9052C92.9747 88.2264 92.9545 85.5479 92.9387 82.8691C92.9301 82.1219 92.9215 81.3748 92.9127 80.605C92.8905 75.5748 93.2934 70.7719 94.0245 65.7923C94.6991 65.7923 95.3736 65.7923 96.0686 65.7923C96.0448 64.9727 96.0211 64.153 95.9967 63.3085C95.8111 51.3355 96.9252 39.5289 98.1126 27.6208Z" fill="#EDB76A"/>
<path d="M167.609 56.7517C167.862 57.3318 168.115 57.9119 168.376 58.5096C169.959 61.311 171.065 62.8995 173.741 64.7878C176.837 65.1242 179.838 65.0223 182.939 64.7878C182.602 65.4508 182.265 66.1138 181.917 66.7968C179.544 67.206 177.158 67.5446 174.763 67.8014C174.763 69.4588 174.763 71.1162 174.763 72.8239C176.787 73.1554 178.81 73.4869 180.895 73.8284C180.895 74.1599 180.895 74.4914 180.895 74.833C173.495 75.2211 168.754 74.7568 162.563 70.4382C161.477 68.8059 161.477 68.8059 161.796 66.1062C162.028 65.3397 162.26 64.5731 162.499 63.7833C165.565 64.7878 165.565 64.7878 166.587 66.7968C167.77 63.3079 167.679 60.4074 167.609 56.7517Z" fill="#2C2C2C"/>
<path d="M80.7385 95.9277C80.7385 96.5907 80.7385 97.2537 80.7385 97.9367C81.5606 98.2475 82.3826 98.5583 83.2296 98.8785C85.8485 99.9458 85.8485 99.9458 86.8705 100.95C93.6788 102.104 100.114 102.582 106.289 98.9413C106.289 99.6042 106.289 100.267 106.289 100.95C105.614 100.95 104.94 100.95 104.245 100.95C103.907 101.945 103.57 102.939 103.223 103.964C100.603 104.018 97.9854 104.058 95.3659 104.089C94.6288 104.106 93.8917 104.123 93.1323 104.14C88.8647 104.179 85.5936 103.842 81.7605 101.955C81.7605 101.292 81.7605 100.629 81.7605 99.9458C81.086 99.9458 80.4114 99.9458 79.7165 99.9458C79.2106 98.9513 79.2106 98.9513 78.6945 97.9367C74.6981 97.8863 70.702 97.8503 66.7054 97.8264C64.6934 97.8116 62.6815 97.786 60.6696 97.7602C53.3906 97.7239 46.5475 98.1025 39.4011 99.4985C35.7504 100.124 32.3119 100.085 28.6162 99.9458C37.2648 94.2787 51.29 95.52 61.3842 95.2371C62.6905 95.1899 63.9967 95.1426 65.3425 95.0939C75.7938 94.7653 75.7938 94.7653 80.7385 95.9277Z" fill="#EEB667"/>
<path d="M354.636 61.7742C358.009 61.7742 361.381 61.7742 364.856 61.7742C363.55 66.7914 361.658 69.4216 357.702 72.8239C354.68 74.3089 351.833 73.889 348.504 73.8284C348.525 73.0411 348.546 72.2538 348.568 71.4427C348.695 68.8248 348.695 68.8248 347.482 66.7968C348.968 66.3928 348.968 66.3928 350.484 65.9806C351.517 65.587 352.55 65.1934 353.614 64.7878C353.951 63.7933 354.289 62.7989 354.636 61.7742Z" fill="#1D1D1D"/>
<path d="M21.4621 26.6163C21.7994 26.6163 22.1366 26.6163 22.4841 26.6163C22.7034 32.3272 22.0851 37.4577 20.9591 43.0613C20.5148 45.3221 20.1609 47.5627 19.8652 49.8457C19.4181 52.7337 19.4181 52.7337 18.3961 53.7382C18.149 56.0366 18.0043 58.3335 17.8611 60.6403C17.3741 62.7788 17.3741 62.7788 14.3081 64.7878C14.8283 57.8043 15.4962 50.8398 16.2882 43.8814C16.3645 43.1738 16.4407 42.4662 16.5193 41.7372C17.8788 30.1383 17.8788 30.1383 21.4621 26.6163Z" fill="#F1A53E"/>
<path d="M34.7482 0.498909C44.8471 0.128228 53.5641 0.783508 63.3644 3.51245C59.5319 4.64253 59.5319 4.64253 57.2323 3.51245C57.2323 4.17543 57.2323 4.83841 57.2323 5.52148C50.4871 5.52148 43.7419 5.52148 36.7922 5.52148C36.7922 7.17893 36.7922 8.83638 36.7922 10.5441C35.7804 11.0413 35.7804 11.0413 34.7482 11.5486C34.7482 7.90218 34.7482 4.25579 34.7482 0.498909Z" fill="#F2A742"/>
<path d="M296.382 21.5937C298.577 24.8297 298.999 25.8725 298.426 29.6298C296.765 31.5133 296.765 31.5133 294.338 32.6434C288.793 32.2159 288.793 32.2159 287.184 30.6344C287.039 27.9517 287.14 25.286 287.184 22.5982C290.575 20.4997 292.579 20.3151 296.382 21.5937Z" fill="#272727"/>
<path d="M12.2641 66.7968C12.9386 66.7968 13.6131 66.7968 14.3081 66.7968C14.3356 68.7639 14.3555 70.7311 14.3719 72.6983C14.3838 73.7938 14.3957 74.8893 14.4079 76.0179C14.3081 78.851 14.3081 78.851 13.2861 80.86C13.2133 83.2447 13.2001 85.6314 13.2222 88.0172C13.2314 89.3043 13.2406 90.5914 13.2501 91.9175C13.262 92.9094 13.2739 93.9013 13.2861 94.9232C11.2625 94.5917 9.23892 94.2602 7.15403 93.9187C7.48721 87.7756 8.07546 82.4456 10.5274 76.7674C11.7324 73.5054 11.9512 70.2409 12.2641 66.7968Z" fill="#F79D23"/>
<path d="M30.6602 28.6253C31.3347 28.9568 32.0092 29.2883 32.7042 29.6298C33.0115 37.2153 32.1178 44.2843 30.6602 51.7292C29.9857 51.7292 29.3111 51.7292 28.6162 51.7292C28.2789 52.3921 27.9416 53.0551 27.5942 53.7382C26.0029 52.1741 26.3215 50.7069 26.2528 48.5273C26.2836 41.5648 28.5044 35.1902 30.6602 28.6253Z" fill="#FA9D1D"/>
<path d="M26.5721 58.7607C27.2467 58.7607 27.9212 58.7607 28.6161 58.7607C28.6161 63.4016 28.6161 68.0424 28.6161 72.8239C30.977 73.4869 33.3378 74.1499 35.7702 74.833C35.7702 75.1644 35.7702 75.4959 35.7702 75.8375C29.1936 76.3347 29.1936 76.3347 22.4841 76.842C22.4841 74.853 22.4841 72.8641 22.4841 70.8149C23.1586 70.8149 23.8332 70.8149 24.5281 70.8149C24.5044 70.1972 24.4807 69.5796 24.4563 68.9432C24.4378 68.1313 24.4194 67.3194 24.4004 66.4829C24.3767 65.6788 24.3529 64.8747 24.3285 64.0462C24.5281 61.7743 24.5281 61.7743 26.5721 58.7607Z" fill="#FB9D1A"/>
<path d="M24.5281 93.9187C20.2956 96.6921 15.8042 98.7374 11.242 100.95C19.8422 100.453 19.8422 100.453 28.6162 99.9458C26.5721 101.955 26.5721 101.955 24.584 102.151C22.5214 102.086 20.4587 102.02 18.3961 101.955C18.3961 102.618 18.3961 103.281 18.3961 103.964C14.3489 104.627 10.3018 105.29 6.13202 105.973C6.80654 104.978 7.48107 103.984 8.17603 102.959C8.5695 101.296 8.91998 99.6221 9.19804 97.9367C10.5471 97.9367 11.8961 97.9367 13.2861 97.9367C13.2861 97.2738 13.2861 96.6108 13.2861 95.9277C17.2002 94.1173 20.2165 93.7216 24.5281 93.9187Z" fill="#EEAA4E"/>
<path d="M85.8485 20.5892C88.3397 21.4054 88.3397 21.4054 90.9585 22.5982C91.9467 25.512 92.1775 27.6146 92.3039 30.6579C92.3468 31.6744 92.3897 32.691 92.4339 33.7384C92.474 34.8273 92.5141 35.9162 92.5554 37.0381C92.5988 38.1497 92.6422 39.2613 92.6869 40.4065C93.0654 50.8798 93.1034 61.3412 93.0026 71.8194C92.6653 71.8194 92.328 71.8194 91.9805 71.8194C91.1467 66.0225 90.8576 60.3025 90.7789 54.4523C90.7667 53.697 90.7545 52.9417 90.742 52.1635C90.6919 49.0009 90.6435 45.8387 90.6254 42.6757C90.6096 40.3434 90.5685 38.0124 90.5234 35.6804C90.5253 34.9761 90.5273 34.2717 90.5293 33.5459C90.3933 28.1055 88.8036 25.0234 85.8485 20.5892Z" fill="#EEBA68"/>
<path d="M329.086 55.7472C329.486 56.2652 329.887 56.7831 330.3 57.3168C331.217 58.0315 331.217 58.0315 332.152 58.7608C334.768 58.4307 334.768 58.4307 337.262 57.7562C337.937 58.0877 338.611 58.4192 339.306 58.7608C339.306 62.7788 339.306 62.7788 338.284 65.7923C337.947 65.1294 337.61 64.4664 337.262 63.7833C336.25 63.7833 335.238 63.7833 334.196 63.7833C334.196 65.7723 334.196 67.7612 334.196 69.8104C329.218 65.1399 329.218 65.1399 328.886 61.7311C328.953 59.7365 329.019 57.7418 329.086 55.7472Z" fill="#242424"/>
<path d="M275.942 26.6163C279.133 29.146 279.974 30.3593 280.796 34.4013C280.923 36.0173 280.923 36.0173 281.052 37.666C277.679 37.666 274.306 37.666 270.832 37.666C270.832 35.677 270.832 33.6881 270.832 31.6389C272.855 31.6389 274.879 31.6389 276.964 31.6389C276.626 29.9814 276.289 28.324 275.942 26.6163Z" fill="#333333"/>
<path d="M186.005 62.7788C186.005 63.7733 186.005 64.7677 186.005 65.7924C184.993 66.2896 184.993 66.2896 183.961 66.7969C183.545 69.1289 183.2 71.4748 182.939 73.8285C179.904 73.8285 176.868 73.8285 173.741 73.8285C174.078 71.8395 174.416 69.8506 174.763 67.8014C175.922 67.5113 177.082 67.2213 178.276 66.9224C179.478 66.5495 180.679 66.1766 181.917 65.7924C182.254 65.1294 182.592 64.4664 182.939 63.7833C183.951 63.4518 184.963 63.1203 186.005 62.7788Z" fill="#131313"/>
<path d="M182.939 65.7924C177.063 67.8014 177.063 67.8014 174.763 67.8014C174.763 69.4588 174.763 71.1163 174.763 72.824C177.798 73.3212 177.798 73.3212 180.895 73.8285C180.895 74.16 180.895 74.4914 180.895 74.833C170.105 75.2037 170.105 75.2037 165.565 72.824C165.902 71.8295 166.239 70.835 166.587 69.8104C168.275 69.1051 169.979 68.4345 171.697 67.8014C172.034 67.1384 172.372 66.4754 172.719 65.7924C180.294 64.4924 180.294 64.4924 182.939 65.7924Z" fill="#252525"/>
<path d="M85.8485 104.968C86.523 105.3 87.1975 105.631 87.8925 105.973C87.5552 106.636 87.218 107.299 86.8705 107.982C92.9412 107.982 99.0119 107.982 105.267 107.982C105.267 107.319 105.267 106.656 105.267 105.973C106.616 105.973 107.965 105.973 109.355 105.973C109.355 106.636 109.355 107.299 109.355 107.982C100.184 111.085 93.2342 112.258 83.8045 108.986C82.7927 108.323 81.7809 107.661 80.7385 106.977C83.1657 105.91 83.1657 105.91 85.8485 104.968Z" fill="#F1B562"/>
<path d="M49.1521 73.4204C52.0693 74.0314 53.4405 75.5559 55.1883 77.8465C54.1663 78.851 54.1663 78.851 52.0105 78.9844C43.0787 78.9584 43.0787 78.9584 38.8362 77.8465C41.8898 73.8448 44.2916 73.2064 49.1521 73.4204Z" fill="#F19C2A"/>
<path d="M51.1003 73.8285C58.0395 74.2005 62.6171 76.2441 68.4744 79.8555C64.7527 81.0749 64.0474 80.526 60.6177 78.9138C59.7917 78.5318 58.9657 78.1498 58.1146 77.7563C57.172 77.3037 57.172 77.3037 56.2103 76.842C56.2103 77.505 56.2103 78.168 56.2103 78.851C57.5594 79.514 58.9084 80.177 60.2984 80.8601C55.2394 80.5286 50.1805 80.1971 44.9683 79.8555C44.9683 79.5241 44.9683 79.1926 44.9683 78.851C49.5213 78.3538 49.5213 78.3538 54.1663 77.8465C53.1545 76.5206 52.1427 75.1946 51.1003 73.8285Z" fill="#EFB563"/>
<path d="M134.905 96.9323C137.94 97.4295 137.94 97.4295 141.037 97.9368C141.037 98.5997 141.037 99.2627 141.037 99.9458C131.931 100.94 122.825 101.935 113.443 102.959C113.443 101.965 113.443 100.97 113.443 99.9458C120.525 99.2828 127.608 98.6198 134.905 97.9368C134.905 97.6053 134.905 97.2738 134.905 96.9323Z" fill="#E9B669"/>
<path d="M110.377 95.9278C118.471 95.9278 126.565 95.9278 134.905 95.9278C135.242 96.9223 135.579 97.9167 135.927 98.9413C133.01 98.7987 130.093 98.6516 127.176 98.5019C126.358 98.4624 125.541 98.4229 124.699 98.3822C119.867 98.1302 115.155 97.6825 110.377 96.9323C110.377 96.6008 110.377 96.2693 110.377 95.9278Z" fill="#E8A84B"/>
<path d="M230.973 66.7968C231.311 67.7913 231.648 68.7857 231.995 69.8103C231.658 70.4733 231.321 71.1363 230.973 71.8194C232.997 71.8194 235.021 71.8194 237.105 71.8194C236.768 72.4823 236.431 73.1453 236.083 73.8284C231.158 74.0646 227.434 73.2778 222.797 71.8194C222.797 71.1564 222.797 70.4934 222.797 69.8103C223.472 69.8103 224.146 69.8103 224.841 69.8103C224.841 69.1474 224.841 68.4844 224.841 67.8013C226.963 67.2453 228.77 66.7968 230.973 66.7968Z" fill="#080707"/>
<path d="M29.6382 17.5757C29.9754 17.5757 30.3127 17.5757 30.6602 17.5757C31.0494 28.2016 30.6129 37.1222 25.5501 46.7066C26.1887 36.8802 27.9145 27.2613 29.6382 17.5757Z" fill="#EFB45E"/>
<path d="M125.707 6.52601C123.176 9.19069 121.015 11.2272 117.531 12.5531C116.519 12.5531 115.507 12.5531 114.465 12.5531C114.802 10.8956 115.139 9.2382 115.487 7.53053C122.257 5.39593 122.257 5.39593 125.707 6.52601Z" fill="#ECA84B"/>
<path d="M166.587 50.7247C166.924 50.7247 167.262 50.7247 167.609 50.7247C167.835 53.1935 168.046 55.6621 168.248 58.1329C168.314 58.8348 168.379 59.5366 168.447 60.2597C168.591 62.0995 168.618 63.9472 168.631 65.7924C167.956 66.4553 167.282 67.1183 166.587 67.8014C166.25 66.8069 165.912 65.8125 165.565 64.7879C162.619 65.674 162.619 65.674 160.455 66.7969C160.792 65.1394 161.129 63.482 161.477 61.7743C163.163 61.4428 164.85 61.1113 166.587 60.7698C166.587 57.4549 166.587 54.14 166.587 50.7247Z" fill="#0F0F0F"/>
<path d="M63.3644 9.53952C65.7252 9.53952 68.086 9.53952 70.5184 9.53952C70.5184 10.2025 70.5184 10.8655 70.5184 11.5485C71.3826 11.445 72.2469 11.3414 73.1373 11.2346C77.6752 11.6401 80.5601 13.4577 83.8045 16.5711C83.8045 17.2341 83.8045 17.8971 83.8045 18.5801C73.5844 14.5621 73.5844 14.5621 63.3644 10.544C63.3644 10.2125 63.3644 9.88106 63.3644 9.53952Z" fill="#EFB763"/>
<path d="M59.2764 5.52149C64.5058 5.21914 67.2328 5.63815 71.5404 8.53503C73.2305 9.23641 74.9307 9.91622 76.6505 10.5441C76.6505 10.8755 76.6505 11.207 76.6505 11.5486C74.6269 11.5486 72.6033 11.5486 70.5184 11.5486C70.5184 10.8856 70.5184 10.2226 70.5184 9.53954C68.1576 9.53954 65.7968 9.53954 63.3644 9.53954C63.3644 8.87656 63.3644 8.21358 63.3644 7.53051C62.0153 7.53051 60.6663 7.53051 59.2764 7.53051C59.2764 6.86754 59.2764 6.20456 59.2764 5.52149Z" fill="#F89D20"/>
<path d="M8.17603 78.851C9.40468 82.3979 8.98885 85.0077 8.2399 88.645C8.04097 89.6343 7.84204 90.6236 7.63708 91.6429C7.47767 92.3939 7.31826 93.1449 7.15402 93.9187C7.82854 94.2502 8.50307 94.5817 9.19803 94.9232C8.18625 95.2547 7.17446 95.5862 6.13201 95.9278C5.31223 97.8101 5.31223 97.8101 4.91838 100.009C4.75634 100.745 4.59429 101.482 4.42734 102.241C4.25937 103.094 4.25937 103.094 4.088 103.964C3.75074 103.964 3.41348 103.964 3.06599 103.964C3.70585 98.1382 4.77684 92.5746 6.19589 86.8871C6.38626 86.1089 6.57663 85.3307 6.77276 84.5289C7.23656 82.6353 7.70572 80.743 8.17603 78.851Z" fill="#F1BD6E"/>
<path d="M56.2103 76.842C61.8707 77.4601 61.8707 77.4601 64.2586 79.416C64.8278 80.1308 64.8278 80.1308 65.4084 80.86C65.0711 81.1915 64.7339 81.523 64.3864 81.8646C65.0609 82.5275 65.7354 83.1905 66.4304 83.8736C62.6667 83.2714 58.9233 82.6204 55.1883 81.8646C55.5256 80.2071 55.8628 78.5497 56.2103 76.842Z" fill="#F0AD59"/>
<path d="M24.5281 93.9187C21.7868 95.715 19.1086 97.1346 16.1605 98.5646C15.2396 99.0126 14.3187 99.4606 13.3699 99.9222C12.3166 100.431 12.3166 100.431 11.2421 100.95C12.2539 101.613 13.2656 102.276 14.3081 102.959C12.6218 103.291 10.9355 103.622 9.19805 103.964C9.19805 101.975 9.19805 99.9859 9.19805 97.9367C10.5471 97.9367 11.8961 97.9367 13.2861 97.9367C13.2861 97.2738 13.2861 96.6108 13.2861 95.9277C17.2002 94.1173 20.2165 93.7216 24.5281 93.9187Z" fill="#EFB867"/>
<path d="M17.3741 48.7155C17.7113 48.7155 18.0486 48.7155 18.3961 48.7155C18.3074 51.0183 18.1968 53.3202 18.0767 55.6216C18.0174 56.9035 17.9581 58.1854 17.8971 59.5062C17.7245 60.5862 17.5519 61.6661 17.3741 62.7787C16.3623 63.4417 15.3505 64.1047 14.3081 64.7878C14.4251 62.8618 14.5555 60.9366 14.6913 59.0118C14.7625 57.9397 14.8336 56.8675 14.9069 55.7628C15.3023 52.9324 15.8992 51.1434 17.3741 48.7155Z" fill="#F59D23"/>
<path d="M87.8925 103.964C86.8067 105.533 86.8067 105.533 84.8265 106.977C81.0579 106.663 81.0579 106.663 77.6725 105.973C77.6725 104.978 77.6725 103.984 77.6725 102.959C81.6958 101.641 83.9321 102.715 87.8925 103.964Z" fill="#F2A12C"/>
<path d="M47.0123 88.8962C47.0123 89.2277 47.0123 89.5592 47.0123 89.9007C44.6068 90.3845 42.2008 90.8654 39.7943 91.3447C39.1231 91.48 38.4519 91.6153 37.7603 91.7548C33.363 92.6277 28.9747 93.3334 24.5281 93.9188C25.2027 93.2558 25.8772 92.5928 26.5721 91.9098C27.5839 91.9098 28.5957 91.9098 29.6382 91.9098C29.6382 91.2468 29.6382 90.5838 29.6382 89.9007C35.4737 89.1572 41.1274 88.791 47.0123 88.8962Z" fill="#EAB362"/>
<path d="M22.4841 59.7653C22.8214 59.7653 23.1587 59.7653 23.5061 59.7653C23.5061 66.0636 23.5061 72.3619 23.5061 78.8511C22.1571 78.8511 20.808 78.8511 19.4181 78.8511C20.4299 72.5528 21.4417 66.2545 22.4841 59.7653Z" fill="#EEBF77"/>
<path d="M22.4841 30.6343C22.8214 30.6343 23.1587 30.6343 23.5061 30.6343C23.9738 38.2947 22.2239 45.3032 20.4401 52.7336C20.1029 52.7336 19.7656 52.7336 19.4181 52.7336C19.5358 50.368 19.6653 48.0039 19.8014 45.6392C19.8725 44.3223 19.9437 43.0054 20.017 41.6486C20.4381 37.6846 21.2552 34.4101 22.4841 30.6343Z" fill="#EDB96C"/>
<path d="M90.9585 17.5757C91.7384 18.0936 92.5184 18.6116 93.3219 19.1452C94.2283 19.6217 95.1347 20.0983 96.0686 20.5892C97.0803 20.2577 98.0921 19.9262 99.1346 19.5847C99.1346 18.9217 99.1346 18.2587 99.1346 17.5757C99.8091 17.5757 100.484 17.5757 101.179 17.5757C101.853 19.5646 102.528 21.5535 103.223 23.6028C102.548 23.6028 101.874 23.6028 101.179 23.6028C100.841 24.2657 100.504 24.9287 100.157 25.6118C100.157 23.9543 100.157 22.2969 100.157 20.5892C99.1448 21.2522 98.133 21.9152 97.0906 22.5982C94.3439 22.7238 94.3439 22.7238 91.9805 22.5982C91.6433 20.9408 91.306 19.2833 90.9585 17.5757Z" fill="#F1B760"/>
<path d="M5.11004 97.9367C5.4473 97.9367 5.78456 97.9367 6.13204 97.9367C6.13204 99.5942 6.13204 101.252 6.13204 102.959C6.80657 103.291 7.48109 103.622 8.17605 103.964C6.15248 104.958 6.15248 104.958 4.08803 105.973C4.08803 106.967 4.08803 107.962 4.08803 108.986C4.76255 109.318 5.43708 109.649 6.13204 109.991C4.44573 109.991 2.75942 109.991 1.02201 109.991C1.35927 108.002 1.69653 106.013 2.04402 103.964C2.71854 103.964 3.39307 103.964 4.08803 103.964C4.42529 101.975 4.76255 99.9859 5.11004 97.9367Z" fill="#F19F2E"/>
<path d="M45.2238 84.7525C46.5148 84.7707 47.8059 84.7888 49.1361 84.8075C50.1216 84.8308 51.107 84.8541 52.1223 84.8781C52.1223 85.2096 52.1223 85.5411 52.1223 85.8826C46.5575 86.3798 46.5575 86.3798 40.8802 86.8871C41.2175 87.5501 41.5547 88.2131 41.9022 88.8962C39.5388 89.5868 39.5388 89.5868 36.7922 89.9007C34.9398 88.4567 34.9398 88.4567 33.7262 86.8871C37.5119 84.5005 40.8085 84.6722 45.2238 84.7525Z" fill="#F49D29"/>
<path d="M135.927 0.498901C140.986 0.498901 146.045 0.498901 151.257 0.498901C150.92 1.49337 150.582 2.48784 150.235 3.51244C146.862 3.84393 143.49 4.17542 140.015 4.51696C140.015 3.85398 140.015 3.191 140.015 2.50793C138.666 1.84495 137.317 1.18197 135.927 0.498901Z" fill="#EABB79"/>
<path d="M169.653 36.6614C172.351 36.6614 175.049 36.6614 177.829 36.6614C177.51 38.6077 177.51 38.6077 176.807 40.6795C173.445 41.781 171.99 41.4826 168.631 40.6795C168.968 39.3535 169.306 38.0275 169.653 36.6614Z" fill="#121212"/>
<path d="M112.421 96.9323C117.817 97.2637 123.213 97.5952 128.773 97.9368C128.773 98.2683 128.773 98.5997 128.773 98.9413C123.839 100.193 117.117 101.249 112.421 98.9413C112.421 98.2783 112.421 97.6153 112.421 96.9323Z" fill="#FA9C1F"/>
<path d="M320.91 70.8149C320.91 71.8093 320.91 72.8038 320.91 73.8284C322.259 74.1599 323.608 74.4914 324.998 74.8329C323.712 74.8536 322.426 74.8744 321.102 74.8957C320.378 74.9074 319.655 74.919 318.91 74.931C316.822 74.8329 316.822 74.8329 313.756 73.8284C313.756 73.1654 313.756 72.5024 313.756 71.8194C317.461 69.6848 317.461 69.6848 320.91 70.8149Z" fill="#252525"/>
<path d="M113.443 8.53505C114.117 9.86101 114.792 11.187 115.487 12.5531C113.8 13.8791 112.114 15.205 110.377 16.5712C109.702 15.2452 109.028 13.9192 108.333 12.5531C110.019 11.2271 111.705 9.90119 113.443 8.53505Z" fill="#EEB45D"/>
<path d="M195.203 58.7607C195.54 58.7607 195.878 58.7607 196.225 58.7607C196.225 63.7331 196.225 68.7054 196.225 73.8284C193.864 73.8284 191.503 73.8284 189.071 73.8284C189.408 73.1655 189.746 72.5025 190.093 71.8194C191.442 71.4879 192.791 71.1564 194.181 70.8149C194.518 66.837 194.856 62.8591 195.203 58.7607Z" fill="#0A0A0A"/>
<path d="M146.147 1.5034C146.147 1.83489 146.147 2.16638 146.147 2.50792C144.123 2.50792 142.1 2.50792 140.015 2.50792C140.015 3.1709 140.015 3.83388 140.015 4.51695C136.642 4.51695 133.27 4.51695 129.795 4.51695C129.795 4.18546 129.795 3.85397 129.795 3.51243C135.308 1.23076 140.282 1.29835 146.147 1.5034ZM127.751 4.51695C129.795 5.52146 129.795 5.52146 129.795 5.52146L127.751 4.51695Z" fill="#E89A2F"/>
<path d="M44.9683 74.8329C48.0036 75.1644 51.039 75.4959 54.1663 75.8375C54.1663 76.8319 54.1663 77.8264 54.1663 78.851C51.131 78.5195 48.0956 78.188 44.9683 77.8465C44.9683 76.852 44.9683 75.8576 44.9683 74.8329Z" fill="#FB9E1D"/>
<path d="M347.482 66.7968C349.168 66.7968 350.855 66.7968 352.592 66.7968C352.571 67.5841 352.55 68.3714 352.528 69.1825C352.401 71.8004 352.401 71.8004 353.614 73.8284C351.928 73.8284 350.242 73.8284 348.504 73.8284C348.525 73.0411 348.546 72.2538 348.568 71.4427C348.695 68.8248 348.695 68.8248 347.482 66.7968Z" fill="#0F0F0F"/>
<path d="M65.4084 4.51698C67.0295 4.94574 68.647 5.38786 70.2629 5.83541C71.6146 6.20251 71.6146 6.20251 72.9936 6.57702C75.6874 7.55187 77.5233 8.74604 79.7165 10.5441C73.6232 10.131 70.1956 9.28571 65.4084 5.5215C65.4084 5.19001 65.4084 4.85852 65.4084 4.51698Z" fill="#EEB766"/>
<path d="M34.7482 2.50793C36.4345 2.50793 38.1208 2.50793 39.8582 2.50793C39.521 3.5024 39.1837 4.49687 38.8362 5.52148C38.1617 5.52148 37.4872 5.52148 36.7922 5.52148C36.7922 7.17893 36.7922 8.83637 36.7922 10.544C35.7804 11.0413 35.7804 11.0413 34.7482 11.5486C34.7482 8.56516 34.7482 5.58175 34.7482 2.50793Z" fill="#F69D1E"/>
<path d="M14.3081 77.8465C15.2629 80.8704 15.3756 81.7305 14.3081 84.8781C14.24 86.2788 14.2208 87.6824 14.2442 89.0845C14.2653 90.3483 14.2864 91.6121 14.3081 92.9142C13.2963 93.4115 13.2963 93.4115 12.2641 93.9188C12.2089 91.8054 12.1692 89.6916 12.1363 87.5778C12.1126 86.4007 12.0889 85.2237 12.0645 84.0109C12.2641 80.8601 12.2641 80.8601 14.3081 77.8465Z" fill="#F0C06C"/>
<path d="M148.191 63.7833C149.894 63.7404 151.598 63.7425 153.301 63.7833C154.323 64.7878 154.323 64.7878 154.423 66.8636C154.411 67.691 154.399 68.5184 154.387 69.3709C154.378 70.2009 154.368 71.031 154.359 71.8861C154.341 72.8476 154.341 72.8476 154.323 73.8285C153.986 73.8285 153.648 73.8285 153.301 73.8285C152.964 71.1765 152.626 68.5246 152.279 65.7923C150.593 65.7923 148.906 65.7923 147.169 65.7923C147.506 65.1294 147.843 64.4664 148.191 63.7833Z" fill="#767676"/>
<path d="M301.492 38.6704C302.166 39.3334 302.841 39.9964 303.536 40.6795C305.222 40.0165 306.908 39.3535 308.646 38.6704C308.309 40.3279 307.971 41.9853 307.624 43.693C305.6 43.693 303.577 43.693 301.492 43.693C301.492 42.0356 301.492 40.3781 301.492 38.6704Z" fill="#0D0D0D"/>
<path d="M354.636 61.7742C358.009 61.7742 361.381 61.7742 364.856 61.7742C364.182 63.7632 363.507 65.7521 362.812 67.8013C360.768 66.7968 360.768 66.7968 359.746 63.7833C358.06 63.4518 356.374 63.1203 354.636 62.7788C354.636 62.4473 354.636 62.1158 354.636 61.7742Z" fill="#252525"/>
<path d="M228.929 36.6614C230.278 36.9929 231.627 37.3244 233.017 37.6659C232.543 38.4429 232.543 38.4429 232.059 39.2355C230.676 42.3536 230.346 45.3516 229.951 48.7156C229.614 48.7156 229.277 48.7156 228.929 48.7156C228.929 44.7377 228.929 40.7598 228.929 36.6614Z" fill="#444444"/>
<path d="M85.8485 104.968C86.523 105.3 87.1975 105.631 87.8925 105.973C87.5552 106.636 87.218 107.299 86.8705 107.982C87.8823 108.313 88.8941 108.645 89.9365 108.986C89.9365 109.318 89.9365 109.649 89.9365 109.991C86.721 110.254 85.2165 110.24 82.4631 108.484C81.894 107.987 81.3248 107.49 80.7385 106.977C83.1657 105.91 83.1657 105.91 85.8485 104.968Z" fill="#F0AC52"/>
<path d="M62.3423 88.8961C67.4013 88.8961 72.4602 88.8961 77.6724 88.8961C77.6724 89.8906 77.6724 90.8851 77.6724 91.9097C70.084 90.9152 70.084 90.9152 62.3423 89.9006C62.3423 89.5691 62.3423 89.2377 62.3423 88.8961Z" fill="#EBB270"/>
<path d="M182.939 68.8059C185.3 69.4689 187.661 70.1319 190.093 70.8149C189.756 71.8094 189.419 72.8039 189.071 73.8285C186.036 73.3312 186.036 73.3312 182.939 72.824C182.939 71.498 182.939 70.172 182.939 68.8059Z" fill="#2B2B2B"/>
<path d="M85.8485 20.5892C88.378 21.5837 88.378 21.5837 90.9585 22.5982C91.2958 25.5816 91.6331 28.565 91.9805 31.6388C91.306 30.3129 90.6315 28.9869 89.9365 27.6208C89.2221 26.3599 88.4985 25.104 87.7648 23.8539C87.1324 22.7765 86.5 21.6992 85.8485 20.5892Z" fill="#F0B966"/>
<path d="M72.5624 83.8736C73.237 84.2051 73.9115 84.5365 74.6065 84.8781C74.6065 85.5411 74.6065 86.204 74.6065 86.8871C75.281 86.8871 75.9555 86.8871 76.6505 86.8871C76.6505 87.8816 76.6505 88.876 76.6505 89.9007C74.1593 89.524 74.1593 89.524 71.5404 88.8961C71.2032 88.2332 70.8659 87.5702 70.5184 86.8871C71.193 86.5556 71.8675 86.2241 72.5624 85.8826C72.5624 85.2196 72.5624 84.5566 72.5624 83.8736Z" fill="#F2A647"/>
<path d="M346.46 71.8194C348.484 72.4824 350.507 73.1454 352.592 73.8285C352.592 74.1599 352.592 74.4914 352.592 74.833C350.953 74.8874 349.313 74.9263 347.674 74.9585C346.761 74.9818 345.848 75.0052 344.907 75.0292C342.372 74.833 342.372 74.833 339.306 72.8239C340.792 72.855 340.792 72.855 342.308 72.8867C345.31 73.1817 345.31 73.1817 346.46 71.8194Z" fill="#252525"/>
<path d="M158.411 50.7247C159.085 51.7191 159.76 52.7136 160.455 53.7382C161.467 54.0697 162.479 54.4012 163.521 54.7427C162.509 56.2344 162.509 56.2344 161.477 57.7563C160.465 57.7563 159.453 57.7563 158.411 57.7563C157.456 54.7323 157.343 53.8723 158.411 50.7247Z" fill="#101010"/>
<path d="M302.514 35.6569C303.526 36.9829 304.537 38.3088 305.58 39.675C303.894 41.0009 302.207 42.3269 300.47 43.693C300.47 41.3726 300.47 39.0522 300.47 36.6614C301.144 36.3299 301.819 35.9985 302.514 35.6569Z" fill="#252525"/>
<path d="M224.841 67.8014C226.19 67.8014 227.539 67.8014 228.929 67.8014C228.592 69.1273 228.255 70.4533 227.907 71.8194C226.221 71.8194 224.535 71.8194 222.797 71.8194C222.797 71.1564 222.797 70.4935 222.797 69.8104C223.472 69.8104 224.146 69.8104 224.841 69.8104C224.841 69.1474 224.841 68.4844 224.841 67.8014Z" fill="#151314"/>
<path d="M182.939 65.7923C177.063 67.8014 177.063 67.8014 174.763 67.8014C174.426 68.7958 174.089 69.7903 173.741 70.8149C173.404 69.1574 173.067 67.5 172.719 65.7923C180.64 64.6622 180.64 64.6622 182.939 65.7923Z" fill="#252525"/>
<path d="M301.492 43.693C303.515 43.693 305.539 43.693 307.624 43.693C308.298 45.019 308.973 46.3449 309.668 47.7111C308.656 48.7055 307.644 49.7 306.602 50.7246C306.602 48.7357 306.602 46.7467 306.602 44.6975C304.916 44.6975 303.229 44.6975 301.492 44.6975C301.492 44.366 301.492 44.0345 301.492 43.693Z" fill="#252525"/>
<path d="M265.722 43.693C266.733 44.356 267.745 45.019 268.788 45.702C267.766 47.7111 267.766 47.7111 264.7 49.7201C264.061 47.8366 264.061 47.8366 263.678 45.702C264.352 45.039 265.027 44.3761 265.722 43.693Z" fill="#121212"/>
<path d="M335.218 38.6704C336.567 39.0019 337.916 39.3334 339.306 39.675C338.284 41.684 338.284 41.684 336.24 42.6885C335.228 44.1802 335.228 44.1802 334.196 45.702C333.521 45.3706 332.847 45.0391 332.152 44.6975C333.164 42.7086 334.176 40.7196 335.218 38.6704Z" fill="#0E0E0E"/>
<path d="M56.2103 76.842C62.0869 77.5954 62.0869 77.5954 64.3864 79.8555C61.351 79.8555 58.3157 79.8555 55.1883 79.8555C55.5256 78.8611 55.8628 77.8666 56.2103 76.842Z" fill="#F69D1C"/>
<path d="M273.898 68.8059C276.069 69.7476 276.069 69.7476 277.986 70.8149C275.558 72.3845 275.558 72.3845 272.876 73.8285C272.201 73.497 271.527 73.1655 270.832 72.824C271.169 71.8295 271.506 70.835 271.854 69.8104C272.528 69.4789 273.203 69.1474 273.898 68.8059Z" fill="#252525"/>
<path d="M306.602 27.6208C307.951 27.6208 309.3 27.6208 310.69 27.6208C310.353 28.6152 310.015 29.6097 309.668 30.6343C308.993 30.6343 308.319 30.6343 307.624 30.6343C307.624 32.6233 307.624 34.6122 307.624 36.6614C307.287 36.6614 306.949 36.6614 306.602 36.6614C306.602 33.678 306.602 30.6946 306.602 27.6208Z" fill="#2D2D2D"/>
<path d="M287.184 26.6163C289.228 27.9975 289.228 27.9975 291.272 29.6298C291.272 30.2928 291.272 30.9558 291.272 31.6389C292.284 31.9704 293.295 32.3019 294.338 32.6434C291.302 32.1462 291.302 32.1462 288.206 31.6389C287.868 29.9814 287.531 28.324 287.184 26.6163Z" fill="#252525"/>
</svg>
